<svg id="Layer_1" data-name="Layer 1" xmlns="http://www.w3.org/2000/svg" viewBox="0 0 857.8 702.87"><defs><style>.cls-1{fill:#e40e00;}.cls-2{stroke:#000;stroke-linejoin:round;stroke-width:2.19px;}.cls-2,.cls-3{stroke-linecap:round;}.cls-3{fill:none;stroke:#e40e00;stroke-miterlimit:10;stroke-width:3px;}.cls-4{fill:#d10e00;}</style></defs><path d="M296.46,407.39l0,0h0Z" transform="translate(-91.19 -150.09)"/><path d="M802.08,297.87l.92,0c.08-.58-.41-.94-.55-1.43a.7.7,0,0,1-.56-.56h0l.14-.16-.14.15c-.75-.53-.75-.92.21-1.14l1-.23c0-.41,0-.82,0-1.23a2.72,2.72,0,0,1-.5-1.89,1.35,1.35,0,0,1-.57-1.08.65.65,0,0,1-.48-.6h0c-.45-.24-1-.47-.79-1.09s.73-.26,1.12-.08a1.56,1.56,0,0,0,1.25-.07v-.22a.89.89,0,0,1-.61-.61,3.55,3.55,0,0,1-1.57-1.14,1.76,1.76,0,0,1-1.33-.53h0l-.17,0-.1-.15c-.12-.05-.32-.06-.35-.13-.08-.26.12-.35.33-.41a.61.61,0,0,1,.48-.6c.06-.32.2-.54.55-.58.25-.42.74-.45,1.11-.67v-.1A1.45,1.45,0,0,1,801,282a1.78,1.78,0,0,1-.59-1.61.75.75,0,0,1,0-1.19,1.36,1.36,0,0,1,.54-1.27v-.1a1.85,1.85,0,0,1-.66-1.16.72.72,0,0,1-.46-.62.65.65,0,0,1-.5-.6c-.82-.57-.79-1.14,0-1.71,0-.52,0-1,0-1.55a1.36,1.36,0,0,1-.59-1.05.69.69,0,0,1-.48-.62c-.85-.44-.63-1.18-.3-1.75.44-.75-.08-1.07-.45-1.49h0l-.18,0-.12-.15c-.54,0-1.08,0-1.07-.71a3.82,3.82,0,0,1,.46-2.22h0a.94.94,0,0,1,.09-.89c0-.73,0-1.45,0-2.18l-1.07-1.11h0c-.56-.13-.65-.54-.65-1a1.91,1.91,0,0,1-.45-1.71l-.14-.14.06-.19a2,2,0,0,1-.67-1.19l0,0,0,0h0c-.73-1.06-.66-1.89.65-2.39l.58-.63v-.22a1.78,1.78,0,0,1-1-.74l0,0a.61.61,0,0,1-.69-.37c-.55-.13-1.17-.11-1.53-.68-.12-.05-.32-.08-.34-.16-.08-.26.11-.36.33-.42a.58.58,0,0,1,.52-.58.58.58,0,0,1,.59-.5l.51-1.06c-.29-.08-.52-.21-.57-.54l0,0,0,0h0c-.85-.81-.42-1.83-.46-2.77a.28.28,0,0,1-.08-.41l-1.52-1.82,0,0c-.75-.37-.5-.83-.11-1.29h0l0-.19.16-.1a.51.51,0,0,1,.44-.62.62.62,0,0,1,.55-.52c-.15-1.05-.89-.38-1.38-.45s-1,.27-1-.35c-.06-.42.33-.72.75-.87a.59.59,0,0,1,.64-.48l-.1-.15-1-.43c-.34,0-.82.22-1-.2a1,1,0,0,1,.5-1.35l0,0c.12-.54.57-.55,1-.61-.06-.33-.12-.65-.19-1l-.19,0-.11-.15c-.34,0-.58-.06-.66-.42l-1.25-1.11h0c-.69-.63-.32-1.45-.35-2.18a1.14,1.14,0,0,0-1-1.23c-1-.38-.5-.85-.09-1.32h0l0-.19.16-.1c0-.36,0-.72-.05-1.08l-3-.62a2.24,2.24,0,0,1,.88-.41L784,225l.06,0c.54-.12,1-.06,1.46-.2l0-.73c-1-.37-2.1-.14-3.06-.6a1.65,1.65,0,0,1-.26-.14c-.35.05-.51-.11-.49-.46a1.46,1.46,0,0,1-.14-.31c-.13-.29-.26-.58-.4-.87a1.74,1.74,0,0,1-1.19-.54c-.77-.15-2,.74-2.12-.88-.34-1-.89-1.72-2.16-1.41a7.81,7.81,0,0,1-1.61.06l-.16.14-.2-.08a6.7,6.7,0,0,1-5.39,0h0c-.91.19-1-.28-.87-1a1.56,1.56,0,0,1-.14-.33,7.87,7.87,0,0,1-.37-3.09l-.14-.15.08-.19a3.6,3.6,0,0,1-.53-2.35,2,2,0,0,1-.48-1.69h0l-.15-.13.05-.19a1.52,1.52,0,0,1-.53-1.28c-.65-.46-.59-1-.13-1.55s.83-.89,1.25-1.34h0l.08-2.09c-.08-1,.79-1.39,1.35-1.89a2.34,2.34,0,0,0,.69-2.44,1.11,1.11,0,0,1,0-1.78h0a.53.53,0,0,1,.66-.49.71.71,0,0,1,.3-.18l.77-.46,0-.75c-1.38-.44-2.9-.07-4.26-.63l-.23-.1c-.79.2-1.14-.08-1-.92a3.85,3.85,0,0,1-.51-2.39,2,2,0,0,1-.51-1.67l-.15-.11.06-.18a1.42,1.42,0,0,1-.46-1.36l-.14-.1.05-.16a1.41,1.41,0,0,1-.46-1.38l-.15-.13.07-.18a4.87,4.87,0,0,1-.46-3A.24.24,0,0,1,762,183a1.18,1.18,0,0,1-.43-1.25l0-.55a2.83,2.83,0,0,1,.44-2.42h0l0-.19.16-.13a1,1,0,0,1,.52-1.07v0a1.2,1.2,0,0,1,0-.5l-.59-.61c-1.73-.9-3.31-3.73-3.05-5.46.14-.9.68-.84,1.37-.6,1.39.48,1.93,1.82,2.85,2.77.78-.63.23-1.6.59-2.34.2-.7-.47-.93-.74-1.37a1.28,1.28,0,0,1-1.1-.54,2.32,2.32,0,0,1-1.59-.63c-.71-.14-1.59.31-2.1-.59l-.17-.12.06-.21c-.61-.86-.4-1.89-.61-2.84a1.38,1.38,0,0,1-.93-.68l0,0a.59.59,0,0,1-.65-.45l0,0h0c-.93-.85-.45-1.7,0-2.55h0c0-.43,0-.85,0-1.28a.56.56,0,0,1-.1-.15l-.6-.87c-.67-.47-.82-.94,0-1.38a.72.72,0,0,1,.58-.55.67.67,0,0,1,.58-.51.64.64,0,0,1,.61-.49.56.56,0,0,1,.6-.47l0,0c.14-.26.29-.51.44-.77h0c-.46-.45-1.33.09-1.66-.68a1.62,1.62,0,0,1-.61-1.18.73.73,0,0,1-.51-.56c-1.48-.29-3,0-4.47-.6h0a.91.91,0,0,1-.9-.09,2.47,2.47,0,0,1-2-.42l-.13-.11h0a.77.77,0,0,1-.81-.41c-.25.32-.29.84-.84.88a2.38,2.38,0,0,1-1.9.14,7.62,7.62,0,0,1-3.57.45l-.89.11a2.33,2.33,0,0,1-1.85.45.25.25,0,0,1-.39.1,1.38,1.38,0,0,1-1.27.47h0a1.26,1.26,0,0,1-1.08.54h0a1.46,1.46,0,0,1-.91.72,1.29,1.29,0,0,1-.72.93h0a.57.57,0,0,1-.47.62.55.55,0,0,1-.61.49c-.35.62-1,.57-1.54.62l-.06,2.07a2.09,2.09,0,0,1,.59,1.65h0c.83,2,.14,4,.47,6.06l.14.16-.08.19a3.27,3.27,0,0,1,.44,2.38h0a.93.93,0,0,1,.11.87,5.08,5.08,0,0,1,.49,3l.14.16-.08.2a3.54,3.54,0,0,1,.46,2.38.27.27,0,0,1,.07.42,3.37,3.37,0,0,1,.54,2.29,5.36,5.36,0,0,1,.49,3.32.86.86,0,0,1,.09.85,2.85,2.85,0,0,1,.48,1.88,1.5,1.5,0,0,1,.61,1.07c.84.75.66,1.51,0,2.28,0,.45-.12.87-.66,1l-.05,0c-.35.6-.93.62-1.52.64-.77.71-1.71.36-2.57.38-2.45.07-4.89.07-7.34.1h0l-.11.15-.17-.06a1.36,1.36,0,0,1-1.36.43.25.25,0,0,1-.4.09,2,2,0,0,1-2.54,0h0l-.21.05-.14-.16a.53.53,0,0,1-.66-.38.65.65,0,0,1-.54-.55c-1.12-.44-2.4,0-3.49-.63h0a23,23,0,0,1-4.39,0,3.65,3.65,0,0,1-1.82.54.77.77,0,0,1-.57.52,1.18,1.18,0,0,1-.6,1l0,0c0,.35-.16.53-.52.53h0c-.58.76-1.37.64-2.15.53-2.31.13-2.31.13-2.35-2a1.84,1.84,0,0,1,.1-.51,2.54,2.54,0,0,1-.17-.51,12.1,12.1,0,0,1-.32-3.5.25.25,0,0,1-.06-.4,3.64,3.64,0,0,1-.55-2.3,25.26,25.26,0,0,0-1.14-3.25,26,26,0,0,0-1.07-2.21,1.25,1.25,0,0,1-.6-1,.63.63,0,0,1-.41-.66h0a2.45,2.45,0,0,0-2.2-.53,1.53,1.53,0,0,1-1,.7,4.76,4.76,0,0,1-1.14,1.56,1.55,1.55,0,0,1-.57,1.25l0,.19-.16.13a2.1,2.1,0,0,1-.49,1.67,6,6,0,0,1-.52,3h0v3.93c.81,1.8.32,3.73.57,5.59.39.22.31.41,0,.58,0,.39-.17.6-.58.55l-.1.12-.15-.06a3.56,3.56,0,0,1-2.49.48.22.22,0,0,1-.38.05,4.64,4.64,0,0,1-2.9.49.26.26,0,0,1-.42,0,6.28,6.28,0,0,1-3.42.5.24.24,0,0,1-.4.05l-.21.1a6.9,6.9,0,0,1-3.22.37,1,1,0,0,1-.9.09,6.58,6.58,0,0,1-3.48.45l-1,.09-.23.1a7.07,7.07,0,0,1-3.2.35l-1,.09-.26.11a7.11,7.11,0,0,1-3.14.35,1.06,1.06,0,0,1-.93.1,6.52,6.52,0,0,1-3.46.49.25.25,0,0,1-.41.05,4.68,4.68,0,0,1-2.87.48,56.42,56.42,0,0,1-9.11,1.69c-3.09.24-6.19.41-9.26.83-9,1.25-17.93,3.2-27.06,3.64-.54,0-1.07.23-1.61.3-9.81,1.42-19.49,3.86-29.47,4.07a7.67,7.67,0,0,0-1.34.23c-8.66,1.84-17.46,2.75-26.19,4.17-5.83.94-11.78,1-17.64,2s-12.12,1.53-18.16,2.41c-2.19.31-4.29.94-6.29-.59-.52-.4-1.24-.2-1.87-.2a54.1,54.1,0,0,0-7.63.58,5.1,5.1,0,0,0-2.54.92,13.13,13.13,0,0,1-6.61,2.39c-8.75,1.21-17.5,2.46-26.28,3.48-6.79.79-13.53,2.06-20.32,2.72a102.82,102.82,0,0,0-14,2.38,64.63,64.63,0,0,1-11.9,1.69c-.82,0-1.93.46-2.15-.94H417c-.14,1.33-1.29,1.12-2.09,1.29a138.29,138.29,0,0,1-14.84,2.46c-13.42,1.4-26.62,4.25-40,5.78-3.88.44-7.7,1.48-11.53,2.29a6.72,6.72,0,0,1-4.79-.43,6,6,0,0,0-5.28-.45c-2.88,1.22-5.85,1.17-8.86,1.23-2.18,0-4.5,0-6.34,1.33-1.5,1-2.71,1.69-4.33.36a1.72,1.72,0,0,0-1.55-.24,14.07,14.07,0,0,1-7,1.63.58.58,0,0,0-.25.09c-2.81,1.84-6,2.07-9.2,2.07a73.06,73.06,0,0,0-18.35,2.62c-5.7,1.49-11.36,3.48-17.43,2.9a5.3,5.3,0,0,0-1.35.19c-8.32,1.49-16.49,3.74-25,4.34-5.07.35-10.07,1.62-15.08,2.58a7.88,7.88,0,0,1-6.29-1c-.54-.37-1.12-.91-1.72-.52-1.25.79-1.85-.37-2.74-.58-2.28-.56-4.11-1.85-6.16-2.7-1.55-.64-2.58-1.08-2.69-2.8a2,2,0,0,0-2.35-2.06c-1.76.26-2-1-2.54-2.16-2.07,1-4,1.75-6,.08-.79-.66-1.31.17-1.87.57a8.48,8.48,0,0,1-6.47,1.58,35,35,0,0,1-5.1-1,13.66,13.66,0,0,0-8.84,0c-1.19.43-2.55.71-3.67-.23-1.38-1.17-3-.62-4.46-.63-.48,0-.7.21-.92.73-.64,1.47-1.45,1.66-2.55.72a8.87,8.87,0,0,1-1.89-2.33c-1.08-2-1.08-2-3.43-1.3-.09.91,1,1.76.41,2.6-1.55,2.26-2.41,5.22-5.76,5.75-3.08.48-4.24,3.59-6.59,5.09a.6.6,0,0,0-.16.5c.48,2.91-1.77,3.91-3.62,5.2-.59.42-1.32.59-1.79,1.22-2,2.64-2.06,9.62.28,11.82.88.82.64,1,.16,1.51a5.11,5.11,0,0,0-1.27,4.56,23.78,23.78,0,0,0,.82,4.84c.74,2.2-.13,3.72-1.83,4.94-.88.64-2.19,1-2.7,1.8-1.51,2.51-3.94,4.07-5.79,6.18a15,15,0,0,1-4.17,3.82A14.6,14.6,0,0,0,117,311.8a4,4,0,0,1-2.61,1.85,3.75,3.75,0,0,0-2.91,2.25c-2.55,5.28-7.59,8.44-11,13.11a8.24,8.24,0,0,1-.74,1.11l-.08.11h0a8.6,8.6,0,0,1-1.47,1.42s-6.43,11.81-6.82,15.85a41.06,41.06,0,0,0,6.82,26.61,8.24,8.24,0,0,1,1.59,1.36,2,2,0,0,1,.35.41,8.81,8.81,0,0,1,.62.85.66.66,0,0,1,.24.4l.09.16a.59.59,0,0,1,.37.61v0a1.14,1.14,0,0,1,.64.78l0,0c.59.41,1.18.82,1.76,1.24l1.08.83q1.71,1.35-.06-.08c.29.2,1.5.89,1.55.92a7.71,7.71,0,0,0,1.71.83l-.82-.34,1.18.45c1,.35,1.91.7,2.88,1,2.69.74,5.1,1.54,7.06,3.67,1.77,1.91,2.47,4.08,3.61,6.33,1.06,2.07,2.28,4.08,3.36,6.15,2.45,4.72,5.73,8.84,8.79,13.16a1,1,0,0,1,.67,1.17l.14.18,0,.08a6.8,6.8,0,0,1,.44,2.3,8.51,8.51,0,0,1,1,3.78v.44a3.76,3.76,0,0,1,.12,1.26c0,.08,0,.16,0,.24l.08.08,0,.11c0,.05,0,.11,0,.17a2.06,2.06,0,0,1,.39,1.46l.12.41c.28.89.6,1.77.94,2.64a3,3,0,0,1,.29.66l.21.51c1.71,3.86,3.68,7.75,4.59,11.9,0,.18.08.37.11.55a.58.58,0,0,1,.31.63h0a1.45,1.45,0,0,1,.52,1.63,8,8,0,0,1,.06,2.67,2,2,0,0,1,.11.2,4.4,4.4,0,0,1,.37,2.61,1,1,0,0,1,.1.91,5,5,0,0,1,.5,2.71c0,.09,0,.18.05.27l.09.08,0,.12v.13a2.22,2.22,0,0,1,.39,1.8.33.33,0,0,1,.07.47l.09.13a2.6,2.6,0,0,1,.33.77,3.85,3.85,0,0,1,.56,1.93c.11,3.6,3.16,8,1.38,11.44-.25.48-.65.86-.89,1.34-.18.22-.15.19.09-.1s.26-.31.13.07a13.58,13.58,0,0,1-.12,2.52c0,1,0,1.94,0,2.86a3.07,3.07,0,0,1,.78,1.58c.42.36.31.73,0,1.09a4.27,4.27,0,0,1-.23,1.06.91.91,0,0,1-.19.45,4,4,0,0,1-.22.41c.09.31.14.64.22.93a18.63,18.63,0,0,1,.54,2,8.66,8.66,0,0,1,0,3.44,3.55,3.55,0,0,1,.74,2.34c0,.67-.06,1.34-.1,2a2.72,2.72,0,0,0,0,.28c.08,1.07.1,2.15.11,3.23a5.22,5.22,0,0,1,.4.87,14.77,14.77,0,0,1,.34,3c0,.1.07.2.1.31a1.85,1.85,0,0,1,.23.79,16.42,16.42,0,0,1,.48,2.7,9,9,0,0,1,.05,2.49,2.62,2.62,0,0,1,.11,1.24,2.65,2.65,0,0,1,.09,1.09c-.4,3-1,5.91-1.54,8.88a10.89,10.89,0,0,0-.16,3.17,8.58,8.58,0,0,1-.51,4,1.75,1.75,0,0,1-.12.32l.06.38a3.39,3.39,0,0,1,1.22,1.42,20.84,20.84,0,0,1,2.93,3c.15.18.3.36.43.55a.59.59,0,0,1,.28.41l.22.38a1.37,1.37,0,0,1,.36.88,4.51,4.51,0,0,1,.2,1.28,7.71,7.71,0,0,1-1.31,3.67,10.59,10.59,0,0,0-.71,1.63,16.7,16.7,0,0,0,.09,3.08,3.65,3.65,0,0,0,.14.35l0,0v0c.06.13.12.26.19.39a1.18,1.18,0,0,1,.19.39,6,6,0,0,1,.42,1,9.75,9.75,0,0,1-.16,5c-.38,1.36-1.11,2.56-1.6,3.87a9.85,9.85,0,0,0-.36,3.75c0,.1,0,.2,0,.3a3.33,3.33,0,0,1,1.23,2.6,5.35,5.35,0,0,1,1.16,3.29c0,.49-.05,1,0,1.49,0,.17,0,.3,0,.4a3.85,3.85,0,0,1,.82,2.15.23.23,0,0,1,0,.18,3.13,3.13,0,0,1-.53,2c-.7.95-1.18,1.44-1.14,2.57a10.41,10.41,0,0,1-.26,2.59,3.48,3.48,0,0,1,1,2.45,1.8,1.8,0,0,1,0,.47h0a.36.36,0,0,1,.11.1,1.71,1.71,0,0,1,.46.74,4.15,4.15,0,0,1,.41,1,1.48,1.48,0,0,1,.21.72c0,.06,0,.11,0,.17a1,1,0,0,1,.39,1.14.25.25,0,0,1,.07.42,3,3,0,0,1,.44,1.15,5.81,5.81,0,0,1,.24.91.93.93,0,0,1,.05.1,35.15,35.15,0,0,1,1.72,5.64,1.1,1.1,0,0,1,.26,1.09l.14.15-.07.14a.83.83,0,0,1,0,.15,3.47,3.47,0,0,1,.42,1.6l.06.2c.68,2.37,2.14,4.09,3.68,6.17s2.9,4.4,4.65,6.44c.35.42.68.83,1,1.25h0l.15.22a.67.67,0,0,1,.5.51.64.64,0,0,1,.54.6,2.27,2.27,0,0,1,.4,1.91,9.61,9.61,0,0,1,.23,1,52.93,52.93,0,0,0,1.3,5.39,2.47,2.47,0,0,1,.1.29c.13.45.28.9.43,1.34a1.34,1.34,0,0,1,.09.26c.09.26.19.53.29.8a12.4,12.4,0,0,1,.54,2,1.82,1.82,0,0,1,.28,1.38.65.65,0,0,1,.1.75l0,.12a4.07,4.07,0,0,1,.44,2,8.7,8.7,0,0,0,.69,1.8c1.21,2.29,3.11,4,4.12,6.44,1.18,2.88,1.27,5.93,1.64,9a35.35,35.35,0,0,0,.85,4.52,3.54,3.54,0,0,1,1.7,3.15c-.13,1.7,1.91,4,2.39,6a10.25,10.25,0,0,1,.27,2.19,3.58,3.58,0,0,1,0,1.84c0,.66-.1,1.33-.14,2,0,1,0,2.07,0,3.11.1,2.64.11,5.3.31,7.93a6.77,6.77,0,0,1-.84,4,3.31,3.31,0,0,1-.16,1.21,4.3,4.3,0,0,1-.14,1.65,9,9,0,0,1-.69,1.39.54.54,0,0,1-.06.11.75.75,0,0,1-.07.12l0,.28q-.25,1.14-.6,2.19a3.39,3.39,0,0,1-.62,1.81c-.21.58-.43,1.16-.65,1.76a4.65,4.65,0,0,1-.89,1.49c-.08,1.1-.14,2.2-.33,3.3-.35,2.07-.94,4.09-1.37,6.15a37.55,37.55,0,0,1-1.28,5.86c-.66,1.71-1.72,3.39-2.07,5.2a25.35,25.35,0,0,0,0,5.84c.19,3.9-.11,7.87.68,11.71a.89.89,0,0,1,.12.57v0a3.74,3.74,0,0,1,.11.85,2.07,2.07,0,0,1-.1,1.25,1.86,1.86,0,0,1,.1.25,15.41,15.41,0,0,1,.43,3.32,1.2,1.2,0,0,1,.49,1.12l.15.1,0,.18a1.52,1.52,0,0,1,.59,1.27,1.21,1.21,0,0,1,.49,1.14,1.58,1.58,0,0,1,.45,1.69l.1,5.85a3.25,3.25,0,0,1,.48,2.37l.14.17-.08.21a4.89,4.89,0,0,1,.5,2.91l.14.16-.09.2a5.12,5.12,0,0,1,.51,2.93l.12.12-.07.15a2.33,2.33,0,0,1,.42,1.91,2,2,0,0,1,.11,1.46,3.58,3.58,0,0,1,.11.35,15.61,15.61,0,0,1,.36,4.77.34.34,0,0,1,0,.47.55.55,0,0,1,.09.14,3.16,3.16,0,0,1,.41,2.13.26.26,0,0,1,.07.42,4.47,4.47,0,0,1,.5,2.87.23.23,0,0,1,0,.39,6.26,6.26,0,0,1,.47,3.44,1.07,1.07,0,0,1,.08.94,17.38,17.38,0,0,1,.46,6.18,32.69,32.69,0,0,1,0,7.13,12.23,12.23,0,0,1-.46,5.24h0a.66.66,0,0,1-.06.79,4.59,4.59,0,0,1-.48,2.93h0l.08.19-.14.16a3,3,0,0,1-.52,2.29.32.32,0,0,1-.08.46,2.33,2.33,0,0,1-.43,1.86h0l-.11.87a4.87,4.87,0,0,1-.36,2.59.94.94,0,0,1-.12.22.32.32,0,0,1-.05.47,2.81,2.81,0,0,1-.47,2.23,1.78,1.78,0,0,1-.54,1.65,1.12,1.12,0,0,1-.53,1.11c-.33,2.32,0,4.66-.2,7-.08,1.11.81,1.52,1.21,2.28h0a.55.55,0,0,1,.56.54,2.4,2.4,0,0,1,1.18,1.56.59.59,0,0,1,.43.65v0a1.68,1.68,0,0,1,.75,1l.92.1,8.17-.09a78.36,78.36,0,0,0,3.27-1.11,1.14,1.14,0,0,1,1.15-.45l.13-.16.2,0a1.38,1.38,0,0,1,1.26-.53,1.13,1.13,0,0,1,1.15-.48h0l.1-.11a2.16,2.16,0,0,1,1.44-.56,1.21,1.21,0,0,1,1.13-.5,1.15,1.15,0,0,1,1.12-.51,1.18,1.18,0,0,1,1.13-.51h0a1.12,1.12,0,0,1,1.09-.51l.11-.16.18,0a1.5,1.5,0,0,1,1.27-.59,1.23,1.23,0,0,1,1.13-.5,1.14,1.14,0,0,1,1.13-.49,1.09,1.09,0,0,1,1.11-.49l.12-.16.2,0a1.4,1.4,0,0,1,1.28-.53,1.1,1.1,0,0,1,1.14-.45l.14-.16.2,0a1.31,1.31,0,0,1,1.31-.47h0a.45.45,0,0,1,.13-.11,2.69,2.69,0,0,1,2.05-.42l.22-.13.24.07.18-.1a4.85,4.85,0,0,1,2.66-.42l.15-.14.19.08a2.65,2.65,0,0,1,1.83-.5,2,2,0,0,1,1.6-.6,1.14,1.14,0,0,1,1.15-.45l.11-.15.18,0a1.45,1.45,0,0,1,1.31-.52A1.12,1.12,0,0,1,228,808l.12-.15.2,0a1.37,1.37,0,0,1,1.31-.49,1.87,1.87,0,0,1,1.65-.54c2.11-.82,4.23-.41,6.35,0h0a19.86,19.86,0,0,1,5.11,0,.41.41,0,0,1,.13-.1,2.13,2.13,0,0,1,1.56-.44l.11-.1a2,2,0,0,1,1.53-.45l.12-.1a2,2,0,0,1,1.53-.45.52.52,0,0,1,.11-.1,1.94,1.94,0,0,1,1.53-.44.45.45,0,0,1,.16-.15,2.7,2.7,0,0,1,1.37-.54.61.61,0,0,1,.68-.38h0a1,1,0,0,1,1.07-.51l.17-.16.23.06c.93-.59,1.69-.69,1.76.73,0,1,0,2.1,0,3.15a5.93,5.93,0,0,1,.09,2.55,1.74,1.74,0,0,1,.13.36,8.85,8.85,0,0,1,.31,3.12,74.71,74.71,0,0,1,.11,8.06,4.27,4.27,0,0,1,.46,2.89,4.05,4.05,0,0,1,.08,2.46,1.53,1.53,0,0,1,0,1.69h0a3.68,3.68,0,0,1-.06,2.43,6.07,6.07,0,0,1-.47,3.59h0a.74.74,0,0,1-.1.79,3.51,3.51,0,0,1-.45,2.33h0v4.61c.05.1.08.2.12.29a8.48,8.48,0,0,1,.38,3.17l.14.13-.08.18a2.4,2.4,0,0,1,.49,1.88l.13.11-.06.15a1.59,1.59,0,0,1,.51,1.34,1.34,1.34,0,0,1,.59,1,3.89,3.89,0,0,0,.47.09l.2,0,0,.39-.21-.05a1.53,1.53,0,0,1,0-.3c-.05,0-.09.07-.12.19a.06.06,0,0,0,0,0,1.1,1.1,0,0,1-.33-.28v0h0a0,0,0,0,0,0,0c-.39-.24-.31-.75-.57-1.06h0a2.94,2.94,0,0,1-.49-1.35c-.06.54,0,1.05.49,1.36,0,.47.08.88.59,1.06a.76.76,0,0,0,.53.55.68.68,0,0,0,.6.49c.12.54.54.63,1,.64a1.06,1.06,0,0,0,1.07.57h0a4.27,4.27,0,0,0,4.38,0,3.61,3.61,0,0,1,2-.1c2.08-.11,4.22.57,6.24-.45a3.66,3.66,0,0,1,2-.1c1.35-.1,2.81.58,4-.52.77,0,1.63.29,2.2-.53h.05l0,0h0l0,0c.76,0,1.59.25,2.16-.54h0l.13-.14.18.07c.68.05,1.39.22,1.88-.47l.13-.15.18.08c.68,0,1.39.21,1.88-.48l.13-.14.18.07c.67,0,1.37.21,1.88-.44a3.3,3.3,0,0,1,2-.09c1.72-.14,3.51.59,5.13-.5h0l.16-.14.19.08c1,0,2.07.43,2.94-.46a.73.73,0,0,1,.8-.08c1.2-.1,2.49.51,3.58-.47a.84.84,0,0,1,.84-.08c1.19-.1,2.48.52,3.54-.49h0l.17-.14.2.08c.82,0,1.7.33,2.37-.45a54.82,54.82,0,0,1,7-.07l5-1.61h0a1.06,1.06,0,0,0,1.07-.58c.47,0,.89-.07,1.07-.58a1.08,1.08,0,0,0,1.14-.44,15,15,0,0,1,3.78-.07,1.14,1.14,0,0,0,1.16-.51h.08c1.37-1.31,2.66-2.7,4-4.07a12.13,12.13,0,0,0,1.85-2.2,7.37,7.37,0,0,1,2.51-2.86l.28-.15a1.62,1.62,0,0,0,0-.22h0l-.06-.21.16-.15.33,0c.06-.13.11-.27.17-.42.35-.93.72-1.91,1-2.87a2.21,2.21,0,0,0-.4-2.06,2.25,2.25,0,0,0-.54-.12l0,0,0-.61a7,7,0,0,1-.67-1,4.55,4.55,0,0,1-.42-1.36,8.05,8.05,0,0,1-.66.49l.57-1.15c0-.3-.07-.58-.12-.85-.18-1-.1-.83-.71-1.24a7.36,7.36,0,0,0-1-.49,5.56,5.56,0,0,1-2,.23,1,1,0,0,1-1,0,1,1,0,0,1-1-.31,4.88,4.88,0,0,1-.93-.43,4.33,4.33,0,0,1-.46-.28,12.22,12.22,0,0,0-2.19-.14,13.36,13.36,0,0,1-2.45,0c-1-.05-1.9-.14-2.86-.27a16,16,0,0,1-1.82-.28,6.17,6.17,0,0,1-2.1.39,15.39,15.39,0,0,1-3.43-.58,32.33,32.33,0,0,0-6.36-.69c-2.25-.06-4.49.17-6.7-.38-.83-.2-1.61-.56-2.45-.71-1.09-.19-2.23-.11-3.33-.23s-2-.22-2.94-.4a1.56,1.56,0,0,1-1.37-.32,9.43,9.43,0,0,1-2.16-.88,13.85,13.85,0,0,1-4.43-4.45,16.89,16.89,0,0,1-1-1.75,1,1,0,0,1-.25-.51c-.07-.12-.13-.25-.19-.38a1.13,1.13,0,0,1-.4-.86c0-.07-.06-.13-.08-.19a1.09,1.09,0,0,1-.43-.93c0-.09-.08-.18-.13-.27a1.65,1.65,0,0,1-.44-.92,28.17,28.17,0,0,1-2.26-5.9,4.06,4.06,0,0,1-.06-1.42,3.82,3.82,0,0,1-.32-1.57c0-2.73.05-5.47.11-8.2a13.43,13.43,0,0,1,.2-6.11q.27-6.66.76-13.31c.34-4.65.9-9.29,1.22-13.94.05-.76.09-1.54.12-2.31a2.55,2.55,0,0,1-.18-.67c-.05-.34-.09-.68-.13-1h0v0c-.48-3.83-.68-7.66-.79-11.51a1.66,1.66,0,0,1,0-1.67l0-1.58A69.22,69.22,0,0,0,283,721.54c-.6-2.75-1.31-5.54-1.7-8.36a2,2,0,0,1-.1-.77l-.06-.59a2.55,2.55,0,0,1-.12-1.54,23.26,23.26,0,0,1,0-2.64c.05-.8.15-1.6.26-2.4a23.89,23.89,0,0,1,1.6-9.41,1.68,1.68,0,0,1,.39-.9v0c-.1-.16-.06-.28.11-.37a1.09,1.09,0,0,1,.44-1.15,1.38,1.38,0,0,1,.54-1.27h0l-.05-.2.16-.12a1.29,1.29,0,0,1,.46-1.22l.08-7a1.83,1.83,0,0,1,.45-1.85h0l-.06-.2.15-.14a2,2,0,0,1,.4-1.52,1.34,1.34,0,0,1,.11-.14,3.94,3.94,0,0,1,.5-2.35h0c0-.77,0-1.53,0-2.29a2,2,0,0,1-.51-1.34c-.72-.6-1.51-1.13-1.7-2.14a1.68,1.68,0,0,1-.41-1.72,11.19,11.19,0,0,1,0-4.39.5.5,0,0,1,.35-.65,1.14,1.14,0,0,1,.66-1,.53.53,0,0,1,.56-.54h0a.91.91,0,0,1,1.09-.5l.19-.15.23.06a3.39,3.39,0,0,1,2.32-.51l.11-.13.17.06a1.75,1.75,0,0,1,1.25-.61.65.65,0,0,1,.67-.4h0a1.27,1.27,0,0,1,.94-.71.69.69,0,0,1,.6-.48.67.67,0,0,1,.58-.52,17,17,0,0,0,1.1-1.09.69.69,0,0,1,.5-.59.7.7,0,0,1,.48-.6,1.31,1.31,0,0,1,.7-1,1.33,1.33,0,0,1,.55-1.1c.43-1.94-.05-4,.41-5.9l.09-.29,0-.12h0a.63.63,0,0,1,0-.79v-2.74a.25.25,0,0,1-.05-.41,3.52,3.52,0,0,1-.49-2.33l-.15-.14.07-.2a2.12,2.12,0,0,1-.45-1.84.86.86,0,0,1-.09-.87,6.83,6.83,0,0,1-.44-3.52,1.63,1.63,0,0,1-.1-1.33,4.38,4.38,0,0,1-.5-2.51l-.14-.12.07-.17a2.31,2.31,0,0,1-.49-1.88.83.83,0,0,1-.13-.18,3.32,3.32,0,0,1-.45-2,1.94,1.94,0,0,1-.47-1.69.22.22,0,0,1-.09-.37c-.77-1.63-.44-3.38-.5-5.09a.53.53,0,0,1-.12-.14,2.4,2.4,0,0,1-.48-1.47,1.13,1.13,0,0,1-.49-1.14,1.83,1.83,0,0,1-.62-1.62l0,.06s0,0,0,0h0c-.8-2.15-.11-4.41-.49-6.58a2,2,0,0,1-.55-1.65,2,2,0,0,1-.56-1.64,2,2,0,0,1-.56-1.64,1.76,1.76,0,0,1-.46-1.68,2.88,2.88,0,0,1-.09-1.92c-.54-1.27-.19-2.82-1.16-4a.59.59,0,0,1-.45-.67c-.9-1-.56-2.2-.54-3.33a26.67,26.67,0,0,0-.11-5.36,1.46,1.46,0,0,1-.61-1,.71.71,0,0,1-.45-.63.62.62,0,0,1-.48-.61,2.37,2.37,0,0,1-1.17-1.57,1.06,1.06,0,0,1-.52-1.14c-.69-1-.41-2.2-.47-3.33l-.14-.14,0-.19a4.71,4.71,0,0,1-1.13-1.75.64.64,0,0,1-.48-.61.61.61,0,0,1-.5-.6h0a2.6,2.6,0,0,1-1.21-1.53A.61.61,0,0,1,279,574h0a1,1,0,0,1-.54-1.08l-.14-.1.05-.16a1.46,1.46,0,0,1-.46-1.39l-.15-.11.06-.18a1.4,1.4,0,0,1-.45-1.35l-.15-.13.06-.19a1.35,1.35,0,0,1-.45-1.32l-.15-.15.05-.2a1.33,1.33,0,0,1-.44-1.3.23.23,0,0,1-.1-.37,1.25,1.25,0,0,1-.43-1.27.26.26,0,0,1-.11-.4,2.14,2.14,0,0,1-.57-1.72,1.29,1.29,0,0,1-.48-1.16,35.58,35.58,0,0,0-1.21-2.09.61.61,0,0,1-.4-.67h0a1.13,1.13,0,0,1-.6-1,1.1,1.1,0,0,1-.56-1.08,1.06,1.06,0,0,1-.47-1.14l-.16-.13.06-.18a1.8,1.8,0,0,1-.33-1.89H279l.16-.14.2.08a3,3,0,0,1,1.7-.64.68.68,0,0,1,.65-.42.58.58,0,0,1,.58-.5h0c.35-.64.71-.37,1.08,0,1.14.21,1.79,1.32,2.9,1.6h0a.56.56,0,0,1,.73,0,4.51,4.51,0,0,1,2.33-.55,2.16,2.16,0,0,1,1.6-.61,1.25,1.25,0,0,1,1.14-.48,1.17,1.17,0,0,1,1.13-.51,1.15,1.15,0,0,1,1.11-.53h0a1.09,1.09,0,0,1,1.09-.51l.12-.15.19,0c1.48-.76,3.09-.24,4.63-.48l.13-.14.18.08a3.57,3.57,0,0,1,2.43-.5l.12-.13.15.08a2.53,2.53,0,0,1,1.89-.52,22.36,22.36,0,0,0,3.15-2.31.6.6,0,0,1,.67-.43,1.06,1.06,0,0,1,1-.51,9.41,9.41,0,0,1,4.15-4.2.47.47,0,0,1,.21-.11l.3-.13a1,1,0,0,1,1-.45l.13-.16.19.05a1.32,1.32,0,0,1,1.33-.44l.16-.15.22.06a1.83,1.83,0,0,1,1.32-.53,9.18,9.18,0,0,1,3.93-2.67.8.8,0,0,1,.21-.15,9.61,9.61,0,0,1,3.43-4c.11-.46.23-.92.34-1.37a1.62,1.62,0,0,1,.2-.81,1.25,1.25,0,0,1,.13-1.34c.73-.92,1.76-.4,2.66-.55l.14-.14.18.07a1.63,1.63,0,0,1,1.28-.55c1.1-.9,1.84-2.21,3.21-2.79a1.12,1.12,0,0,1,1.13-.53c.46-.54,1.1-.43,1.69-.48L338,523a2.15,2.15,0,0,1,.55-1.64,1.63,1.63,0,0,1,.55-1.46l.09-.08,0,0a.49.49,0,0,1,.51-.56h0a1,1,0,0,1,1-.64l1.34-1.21a11,11,0,0,1,2.64-6.45,1,1,0,0,1,.43-.49,1,1,0,0,1,.6-1l0,0a.47.47,0,0,1,.51-.54h0a1.48,1.48,0,0,1,1.27-.61,9,9,0,0,1,3.55-2.11A10.1,10.1,0,0,1,353,503c0-1.86,0-3.74-.13-5.62a52.85,52.85,0,0,1-4.63-10.31c-.07-.22-.14-.43-.22-.65-.22,0-.44-.14-.66-.58v0l-.09-.15a3.23,3.23,0,0,1-.39-2.09.27.27,0,0,1-.08-.42,3.11,3.11,0,0,1-.56-1.85c-1-2.59-1.94-5.16-2.89-7.79-.62-1.7-1-3.45-1.61-5.11a1.22,1.22,0,0,1-.93-.71.63.63,0,0,1-.64-.46c-.34-.08-.51-.27-.4-.65a19.48,19.48,0,0,1-.15-2.64,26.64,26.64,0,0,1-1.59-3.89,11.25,11.25,0,0,1-.49-2.37,12.31,12.31,0,0,0-2.52-2.68,11.73,11.73,0,0,0-4.13-2.07,20.11,20.11,0,0,1-4.9-1.61c-2.94-1.53-6.34-1.29-9.5-2-.4-.09-.8-.2-1.2-.31l-1.56,0a5.29,5.29,0,0,1-2.31-.19c-.55,0-1.11,0-1.67,0-.83.06-31.86-11.61-38.69-16-1.54-2.37-7.59-9.52-7.57-9.54l0,0c-1.35-1.48-5.94-8.6-5.94-8.6a2.24,2.24,0,0,1-1.08-1.15c-.2-.05-.42-.12-.34-.39,0-.07.24-.09.37-.13h0l.08-.14.16,0a3,3,0,0,1,2.76,0c.78-.39,1.71,0,2.47-.47l.18-.14.22.07c.71-.48,1.64.05,2.34-.49l.16-.15.2.08c.74-.44,1.66.05,2.38-.48l.18-.14.21.08c.72-.47,1.64.05,2.35-.48l.16-.15.2.08a7.33,7.33,0,0,1,2.61-.55,11.64,11.64,0,0,1,4.16.1,3.81,3.81,0,0,0,3.23-.16l-.07,0a1.49,1.49,0,0,0,.67-.47h0a6.15,6.15,0,0,1,.6-.52.31.31,0,0,1,.52-.05,7.79,7.79,0,0,0,1.8,1.05l.77,0c.71-.47,1.62,0,2.33-.46l.47-.07c.62-.57,1.61.12,2.2-.59a.9.9,0,0,0,.54-.54.78.78,0,0,0,.52-.6c1.81-.53,3.73.29,5.52-.48.5-.41,1.23,0,1.7-.51h0c.45-.49,1.19-.06,1.66-.51l.34-.1a4.31,4.31,0,0,0,1.3-.47h0c.83-.4,1.8-.64,2.12-1.69.4-.22.68-1,.68-1,1.16-.6,3.49-.08,3.49-.08,1.52-.19,2.48-1.25,3.45-2.27a9.75,9.75,0,0,1,2.83-.44c.44-.49,1.22,0,1.65-.57h0c.33-.28.82-.21,1.14-.51h0a2.54,2.54,0,0,1,1.09-.55c.27-.35,3.28-2.33,3.78-3.32a2.31,2.31,0,0,0,.58-1.08c.5-.46.45-2,.61-2.18a42.27,42.27,0,0,0,.47-8.23,5.77,5.77,0,0,0,.56-2.73c.7-1.05.42-3.71.58-3.83.63-1.08.45-5.8,1.06-6.65a67.2,67.2,0,0,1,.6-8.7,53.62,53.62,0,0,0,0-8.21c.43-.49.05-1.21.49-1.7l.6-1.59a6.26,6.26,0,0,0,0-3.83c-.54-.39-.66-1.52-.66-1.52a4.25,4.25,0,0,0-.39-1.22L326,337c-.33-.57,0-1.35-.54-1.85v0c-.39-.5,0-1.2-.45-1.71l-.12-5.75c-.13-.47-.54-1.71-.54-1.71a5.39,5.39,0,0,0-.44-1.3.25.25,0,0,1-.09-.4,8.46,8.46,0,0,1,0-2.92,13.33,13.33,0,0,0,1.11-1.75.27.27,0,0,1,.07-.42c.49-.73,0-1.65.46-2.4-.05-.06-.13-.13-.12-.2a2.36,2.36,0,0,1,.11-.44c-.16-.43-.11-1-.56-1.26-.06-.27-.29-.43-.43-.64l0,0c-.36-.21-.21-.81-.69-.93a.58.58,0,0,0-.54-.56c0-.3-.23-.45-.38-.67a102.78,102.78,0,0,1,0-11.51,1.62,1.62,0,0,1,.32-1.56c0-.16.09-.32.14-.48a1.14,1.14,0,0,1,.17-.52,48.47,48.47,0,0,1,4.9-9.15c1.76-2.86,4.09-6,7-7.83.17-.81-.1-1.73.53-2.43h0c0-2.14-.17-4.29,0-6.43a3.47,3.47,0,0,1,1.61-3.89l.18-.34a7.28,7.28,0,0,1,.62-.87,1.86,1.86,0,0,1,.66-.73,13,13,0,0,0,2.15-2.29c.9-1.47,1.6-3,2.49-4.5a1,1,0,0,1,.43-.72,1.16,1.16,0,0,1,.59-1.07,1.41,1.41,0,0,1,1.06-1.15.6.6,0,0,1,.68-.41h0a1,1,0,0,1,.69-.5c1.35-1.09,2.85-2.07,4.15-3.06l1.08-.79c-.25-.56-1.08-1.14.11-1.66a2.57,2.57,0,0,1,1.89-.06,2.47,2.47,0,0,1,.36-.11,9.83,9.83,0,0,1,2.46-.37,10.81,10.81,0,0,1,1.45-.19,2.69,2.69,0,0,1,1.06.13.83.83,0,0,1,.75,0,3.88,3.88,0,0,1,1.73-.45,10.83,10.83,0,0,1,1.81-.72,37.13,37.13,0,0,1,5.14-.92,10.33,10.33,0,0,1,1.84,0,4.17,4.17,0,0,1,1.22,0l6.73-.09a11,11,0,0,1,3.81-1.09l.53-.05,2-.34c1.13-.19,2.26-.4,3.39-.61,1.78-.32,3.58-.61,5.38-.86a8,8,0,0,1,3.27-.72l1.75,0a7.32,7.32,0,0,1,1.69-.06l.78,0a7.2,7.2,0,0,1,2.77-.12l1.11,0a8,8,0,0,1,1-.11c1.92-.22,3.86-.17,5.78-.25l.18-.14.22.08a3.34,3.34,0,0,1,2.34-.51l.12-.13.16.07a3.49,3.49,0,0,1,2.46-.49l.13-.14.17.09a3.38,3.38,0,0,1,2.44-.45.68.68,0,0,1,.78-.09,5.12,5.12,0,0,1,3.05-.49l.2-.13.23.09a1.28,1.28,0,0,1,.24-.11,6.78,6.78,0,0,1,3.16-.36,1.07,1.07,0,0,1,.95-.09l.27-.1a9,9,0,0,1,3.72-.37.94.94,0,0,1,.89-.09,9,9,0,0,1,4-.47.84.84,0,0,1,.85-.08,6.86,6.86,0,0,1,3.53-.44,1,1,0,0,1,.94-.09l.21-.1a7.22,7.22,0,0,1,3.23-.39l.21-.13.23.08.23-.11a5,5,0,0,1,2.61-.36.79.79,0,0,1,.82-.1,3.63,3.63,0,0,1,2.47-.48l.18-.14.21.08a3.43,3.43,0,0,1,2.36-.51l.12-.13.16.07a2.24,2.24,0,0,1,1.9-.43.71.71,0,0,1,.8-.1,4.83,4.83,0,0,1,3-.45,1.63,1.63,0,0,1,1.35-.09,9.34,9.34,0,0,1,4.13-.49l.2-.13.23.08a1.51,1.51,0,0,1,.22-.11,4.66,4.66,0,0,1,2.63-.39.69.69,0,0,1,.81-.06,9,9,0,0,1,4.12-.46,1.74,1.74,0,0,1,1.36-.09,6.28,6.28,0,0,1,3-.49l.16-.14.2.08a4.63,4.63,0,0,1,2.92-.48l.21-.14.22.09a1.88,1.88,0,0,1,.3-.12,8.67,8.67,0,0,1,3.65-.37.86.86,0,0,1,.86-.08,9.09,9.09,0,0,1,4.07-.48l.21-.13.23.09a1.23,1.23,0,0,1,.31-.14,7.88,7.88,0,0,1,3.09-.39l.15-.13.19.08a2,2,0,0,1,2.47,0,1,1,0,0,1,1,.67h0a.65.65,0,0,1,.61.49l.27.08c1.53.39,3.07-.1,4.6,0l.2-.14.24.07a3.27,3.27,0,0,1,2.28-.52.7.7,0,0,1,.2-.15,3.79,3.79,0,0,1,1.93-.48,1.33,1.33,0,0,1,1.15-.48c.53-.56,1-1.12,1.58-1.67.06-.42.12-.83.64-.92l.12-.2.23,0a2.13,2.13,0,0,1,1.83-.44l.22-.14.25.06a3,3,0,0,1,2.27-.48,6.65,6.65,0,0,1,3-.08,4,4,0,0,1,.76-.19,36.67,36.67,0,0,1,4.45-.28l.21-.14.24.07.18-.1a4.66,4.66,0,0,1,2.66-.4l.2-.13.23.08.18-.1a5,5,0,0,1,2.67-.38.78.78,0,0,1,.82-.09,3.62,3.62,0,0,1,2.47-.47l.19-.14.22.07c1.26-.71,2.63-.48,4-.46a2.82,2.82,0,0,1,1.88-.08,6.38,6.38,0,0,1,3-.47l.21-.14.24.07a3.14,3.14,0,0,1,2.29-.47.77.77,0,0,1,.8-.11,3.68,3.68,0,0,1,2.49-.5l.11-.11.14.07c2.06-.78,4.2-.45,6.32-.46l.23-.13.25.08a1.18,1.18,0,0,1,.19-.11,4.36,4.36,0,0,1,2.62-.37l1-.09a1.15,1.15,0,0,1,.23-.1,7.39,7.39,0,0,1,3.2-.4l.18-.14.21.08c1.64-.77,3.4-.23,5.09-.49l.15-.14.2.07a3.29,3.29,0,0,1,2.39-.46l.2-.14.22.08A4.52,4.52,0,0,1,578,219l.22-.13.23.08a1.51,1.51,0,0,1,.26-.12,6.78,6.78,0,0,1,3.13-.4l.18-.14.2.09a4.77,4.77,0,0,1,2.9-.47l.22-.13.24.08a1.34,1.34,0,0,1,.23-.13,5.12,5.12,0,0,1,2.6-.38l.19-.13.23.07a3.32,3.32,0,0,1,2.32-.47l.19-.14.23.07a5.5,5.5,0,0,1,3.41-.47,1.74,1.74,0,0,1,1.36-.09,9,9,0,0,1,4.12-.46,1.74,1.74,0,0,1,1.36-.09,9.14,9.14,0,0,1,4.12-.46,1.69,1.69,0,0,1,1.36-.08,8.87,8.87,0,0,1,4.12-.46,1.7,1.7,0,0,1,1.36-.09,9,9,0,0,1,4.11-.47l.23-.12.25.07a.71.71,0,0,1,.14-.1,3.2,3.2,0,0,1,2.12-.4l.2-.14.23.07a3.13,3.13,0,0,1,2.31-.46.93.93,0,0,1,.87-.11,5,5,0,0,1,3-.47l.21-.13.23.08.26-.11a6.78,6.78,0,0,1,3.13-.36l.95-.09.27-.1a9.13,9.13,0,0,1,3.71-.38.89.89,0,0,1,.88-.08,6.75,6.75,0,0,1,3.5-.44,1.76,1.76,0,0,1,1.35-.1,6.75,6.75,0,0,1,3.58-.47.73.73,0,0,1,.81-.08,5.2,5.2,0,0,1,3-.47l.22-.13.24.08a1.19,1.19,0,0,1,.22-.12,5,5,0,0,1,2.6-.38l.2-.13.23.07a3.31,3.31,0,0,1,2.31-.48l.19-.14.23.07c1.25-.72,2.62-.5,4-.48a1.6,1.6,0,0,1,1.35-.07,10.92,10.92,0,0,1,4.68-.47,1.84,1.84,0,0,1,1.4-.09,6.44,6.44,0,0,1,3-.45l.22-.14.25.07.23-.11a6.21,6.21,0,0,1,3.14-.4l.2-.13.23.08.25-.11a6.88,6.88,0,0,1,3.15-.35l1-.09a1.12,1.12,0,0,1,.25-.11,7.56,7.56,0,0,1,3.17-.4l.17-.13.2.08a3.23,3.23,0,0,1,2.36-.46,3.27,3.27,0,0,1,2-.09,3.07,3.07,0,0,1,.64-.18,19.4,19.4,0,0,1,3.4-.26l.21-.15.24.06a2,2,0,0,1,1.75-.47l.19-.15.23.07c2.13-.89,4.11-1.05,5.62,1.12a.65.65,0,0,1,.66.42,1.34,1.34,0,0,1,1.06.58,2.36,2.36,0,0,1,1.59.63,7.88,7.88,0,0,1,2.81.45l.17.08a2.26,2.26,0,0,1,.66-.19,14.43,14.43,0,0,1,2.87-.33,2.21,2.21,0,0,1,1.6-.62,1.27,1.27,0,0,1,1.07-.56.61.61,0,0,1,.66-.41h0a1.34,1.34,0,0,1,.92-.72.69.69,0,0,1,.51-.55,1.23,1.23,0,0,1,.74-.91v0a.58.58,0,0,1,.48-.6.62.62,0,0,1,.52-.58.58.58,0,0,1,.6-.49,1,1,0,0,1,1.11-.52l.14-.15.2.07a3.18,3.18,0,0,1,2.4-.46.69.69,0,0,1,.8-.08c1.73-.52,3.47-1,5.18.08l0,0a.57.57,0,0,1,.6.47,3.56,3.56,0,0,0,2.12,0,.58.58,0,0,1,.58-.52c.78-.88,1.8-.47,2.74-.52l.19-.13.22.06a1.24,1.24,0,0,1,1.23-.45l.14-.16.21,0a1.33,1.33,0,0,1,1.27-.5,1.13,1.13,0,0,1,1.12-.49l.1-.16.17,0a1.77,1.77,0,0,1,1.24-.65.5.5,0,0,1,.68-.29l.56,0a1.51,1.51,0,0,1,1.67.47.59.59,0,0,1,.65.45.63.63,0,0,1,.5.61,1.08,1.08,0,0,1,.54,1.11,1.86,1.86,0,0,1,.52,1.66,2,2,0,0,1,.49,1.69l.13.1,0,.16c.65.47,1.4.22,2.11.28a.4.4,0,0,1,.13-.13,2.48,2.48,0,0,1,1.44-.52,1.15,1.15,0,0,1,1.15-.5,3.6,3.6,0,0,1,3.89,0c1.59.3,1.59.31,1.61,2.77a.23.23,0,0,1,.06.38,2.22,2.22,0,0,1,.45,1.81.25.25,0,0,1,.09.4,2.2,2.2,0,0,1,.56,1.74,235.3,235.3,0,0,0,1.13,3.27,2,2,0,0,1,.54,1.65,1.93,1.93,0,0,1,.46,1.71l.14.14-.07.19a3.12,3.12,0,0,1,.43,2.4,4.31,4.31,0,0,1,0,2.75c.06.36-.13.5-.45.54h0a2.39,2.39,0,0,1-1.57,1.17,1.19,1.19,0,0,1-1,.64.62.62,0,0,1-.7.36h0a.69.69,0,0,1-.11.13,1.93,1.93,0,0,1-1.39.56A1.17,1.17,0,0,1,750,225c-.34.43-.69.85-1,1.28h0a5.73,5.73,0,0,1,0,2.26c.19.43.72.88-.07,1.26a2.23,2.23,0,0,1-1.5.17l-.18,1a.25.25,0,0,1,.1.4h0s0,0,0,0c.24.2.49.41-.11.53a3.59,3.59,0,0,1-2,.18c0,.35-.09.69-.13,1a1.19,1.19,0,0,1,.57,1.08,1.08,1.08,0,0,1,.1,1.73,5.64,5.64,0,0,0-.08,3.18,1.31,1.31,0,0,1,.63,1,7.64,7.64,0,0,0,1,1.16.66.66,0,0,1,.59.53c.74.41.5.82,0,1.24a1.61,1.61,0,0,1-.58,1.31h0l.06.16-.13.1c0,2.37,0,4.75,0,7.12a2,2,0,0,1,.1,1.4,4.93,4.93,0,0,1,.52,2.41l1.63,1.65a.64.64,0,0,1,.65.44,1.4,1.4,0,0,1,1.1,1.11.59.59,0,0,1,.39.68v0a.58.58,0,0,1,.12.1,1.9,1.9,0,0,1,.57,1.42,1.11,1.11,0,0,1,.4,1.18.22.22,0,0,1,.08.37h0a5.48,5.48,0,0,1,0,5.13c0,.63-.1,1.6.7,1.47,2.61-.42,1.53.88.94,1.89-.32.56,0,1.05-.05,1.56v0a1.24,1.24,0,0,1,.61,1c.66.57.44,1.12,0,1.67h0a.5.5,0,0,1-.48.62c-.3.46-.8.85-.53,1.5a.68.68,0,0,1,.59.48,1.21,1.21,0,0,1,.94.71h0a.6.6,0,0,1,.62.46c.32,0,.56.17.58.54.54.42.29.81-.05,1.19a.93.93,0,0,1-.55,1.1,9.7,9.7,0,0,0,.11,3.68c.56.22,1.73-.06,1,1.23a1.15,1.15,0,0,1-.52,1.2v1.4a1.47,1.47,0,0,1,.15.34c.12.29.24.58.37.87a.55.55,0,0,1,.5.58v0h0c1.05,1.9.18,4,.61,5.94.66.77.44,1.76.67,2.64.52.18,1.24-.09,1.53.64h0c.49.23.27.42-.06.6l.12,1.53a.63.63,0,0,1,.4.66v0a1.19,1.19,0,0,1,.68,1,.63.63,0,0,1,.45.64,1.11,1.11,0,0,1,.66,1,.54.54,0,0,1,.36.66l.16.14,0,.21a1.36,1.36,0,0,1,0,2h0c0,.25,0,.5,0,.75a7.28,7.28,0,0,0,1-.28.58.58,0,0,1,.7.06c.24.25,0,.49-.12.66-.35.44-1.09.59-1,1.34a.59.59,0,0,1,.48.6l0,0,1.71,1c.83.17,2-.3,2.15,1.15a1.48,1.48,0,0,1,.68,1,1.58,1.58,0,0,1,1,.69h0a3,3,0,0,1,1.79.49h0c2.33,0,4.66-.44,7,.07h1.09l.19-.13.22.06a1.39,1.39,0,0,1,1.19-.55c.69-.85,1.65-.51,2.51-.53a22.52,22.52,0,0,0,4.57-.07.68.68,0,0,1,.54-.54.58.58,0,0,1,.59-.52c.82-.78,1.84-.39,2.78-.49l1.67-1.61h0a.56.56,0,0,1,.53-.56c.14-.52.54-.64,1-.67a1.13,1.13,0,0,1,1.19-.41l.12-.15.18.06a1.42,1.42,0,0,1,1.35-.45l.11-.15.18.05c.22-.29.45-.58.67-.88a.88.88,0,0,1,.12-.15,2.18,2.18,0,0,1,.52-1.73.31.31,0,0,1,.06-.45c-.06-2-.06-2,2.16-2.21.92-.74.47-1.79.61-2.71a.32.32,0,0,1-.09-.45,2.15,2.15,0,0,1-.53-1.73,1.49,1.49,0,0,1-.34-1.77c.16-.32.43-.35.2-.07Zm-646,32a26.52,26.52,0,0,1-3.23,10.62,3.74,3.74,0,0,1-2.23,1.83,20.84,20.84,0,0,1-5.59,1.1c-3.54.12-7.1-.07-10.48.47-1.66,0-2.1-.55-1.79-2.07a13,13,0,0,1,2.06-4.42,8.07,8.07,0,0,0,1.75-4.78,3.56,3.56,0,0,1,.64-2.06c2.93-4.72,5.14-9.82,7.84-14.67,1.21-2.18,1.86-2.21,3.58-.52a15,15,0,0,1,3.76,6.84c.63,2.2,1.32,4.38,3.12,5.95A1.78,1.78,0,0,1,156.08,329.89Zm46.62-19a10.25,10.25,0,0,1-2.29-6c-.21-3.28.63-4.69,3.79-5.71,1.68-.54,3.15-2,4.93-1.35,4.71.24,5.28.88,5.31,5.42a14,14,0,0,1-2.47,7.4,2,2,0,0,1-1.55,1,14.7,14.7,0,0,0-3.18.73C205.25,313.2,203.89,312.37,202.7,310.93Zm43.77,476c-2.8-.52-5.44.17-8.13.56a2,2,0,0,0-1.58.94c-.65,1.27-1.74,1.36-3,1.35a80.72,80.72,0,0,1-13.36-.9c-2.11-.36-3.85-1-4.49-3.36a4.31,4.31,0,0,0-1.69-2.11,9,9,0,0,1-3.13-5.9c-1.16-7-1.63-13.92-.05-20.93s2-14.45,2.73-21.71c.51-4.9,1-9.8,2-14.63a10.77,10.77,0,0,0,.29-2.17c0-7.94,1.34-15.82.92-23.78a8.27,8.27,0,0,1,.77-3.44c1.07-2.8,2.42-5.5,2.75-8.56a6.43,6.43,0,0,1,1.67-3.1,16.13,16.13,0,0,0,3.61-7.86,9.28,9.28,0,0,1,.55-1.82c.36-1,1.11-1.1,2-.83a6.16,6.16,0,0,1,2.77,2.16,23.39,23.39,0,0,1,4.65,8.6c2,6.74,3.83,13.5,5.74,20.25a6.73,6.73,0,0,1,.11,3.53c-1.63,6.24-1.37,12.68-2.06,19-.41,3.81-1.2,7.57-1.22,11.42a44.73,44.73,0,0,0,1.46,11.91,57.81,57.81,0,0,0,1.8,5.74c2.61,6.74,3.73,13.88,5.61,20.81A79.58,79.58,0,0,0,250.4,782a16.33,16.33,0,0,1,1.47,5.54C250,788,248.21,787.27,246.47,787Zm22.31-316.06a2.23,2.23,0,0,0-.75,1.66c.18,1.84-1,2.45-2.46,2.62-1.93.23-3.81.37-4.46,2.69a1.17,1.17,0,0,1-.57.57c-.83.46-1.44,1.71-2.55,1.17-.9-.43-.79-1.56-.9-2.45a72.67,72.67,0,0,1-.69-8.72c0-1.69.13-3.25,1.62-4.4.82-.63,1.09-1.48.15-2.3-2.33-2-2-4.7-1.77-7.34a7,7,0,0,0-.11-1.93,79.34,79.34,0,0,1-1.55-9.49c1.72.61,2.64,1.46,3,2.72a3.17,3.17,0,0,0,2.51,2.52c1.81.44,2.47,2,2.86,3.59a3.66,3.66,0,0,1,0,.81c0,1.56,2.87,1.23,2.22,3.24a3.44,3.44,0,0,0,.92,3.74,2.37,2.37,0,0,1,.64,1.76,3,3,0,0,0,1.41,2.48A5.27,5.27,0,0,1,268.78,470.89Zm13.72-8.58c-.12,1.26-.18,2.52-.28,4a1.55,1.55,0,0,1-.9-1.24c-.17-1.09-.8-1.26-1.74-1.15a8.25,8.25,0,0,1-5.25-1c-1.4-.8-1.51-1.55-.38-2.66.13-.13.31-.21.43-.33,1.58-1.58,1.59-1.6,3.35-.53a7.6,7.6,0,0,0,3.31,1.16C282.18,460.58,282.61,461.2,282.5,462.31Zm-26.23-46.74,10.35,13.72a43,43,0,0,0,4.48,4.15c6.28,5,35.83,15.55,35.8,15.61l2.68,1.18a7.58,7.58,0,0,1-2.71,2.85c-1.3,1-2.68,1.9-3.33,3.5-.38.92-1.07.86-1.81.61-1.07-.36-4.5-.13-4.85,1-.49,1.57-1.36,1.81-2.52.71a7.27,7.27,0,0,1-2.44-5c-.28-4.08-2-5.76-5.82-6.33-1.8-.27-4.73,2.05-4.86,3.91a20.54,20.54,0,0,1-.54,4c-.33,1.19-1,1.42-2,1.12-.26-.08-.5-.22-.77-.28-3.66-.82-3.63-.84-6-3.92a21.38,21.38,0,0,0-2.75-3c-.93-.82-1.52-1.58-.73-2.76s.2-2.09-.54-2.93a29.88,29.88,0,0,0-2.33-2.31,9,9,0,0,1-3.15-5,2.31,2.31,0,0,0-1.46-1.8,7.81,7.81,0,0,1-3.34-3.15,53.75,53.75,0,0,0-5.52-7.47c-2.53-2.92-3.34-6.39-3.32-10.16,0-1,.32-1.35,1.39-1.47A6,6,0,0,1,256.27,415.57ZM307.14,268a35.6,35.6,0,0,0-2.55,10.58,12.56,12.56,0,0,1-.9,3.14,12.14,12.14,0,0,0-.16,7.26,56.47,56.47,0,0,1,2.21,17.31,5.58,5.58,0,0,1-1.43,4c-2.1,2.24-2.41,4.65-1.23,7.55,1,2.44.4,5-.74,7.37a6.53,6.53,0,0,0-1,2.77c-.07,5.53-2,10.74-2.83,16.13a9.43,9.43,0,0,0-.33,1.32c.07,3.32-.17,6.55-2.17,9.39.19,2.83-1.3,4.78-3.37,6.43a1.82,1.82,0,0,0-.59,1.73,7.43,7.43,0,0,1-.68,3.18c-1,2.89-2.9,2.9-4.43,1.76-2.14-1.6-3.78-1-5.69,0a5.23,5.23,0,0,1-5.48-.27,11,11,0,0,0-7.85-1.42,26.71,26.71,0,0,1-11.6-1.19,11.43,11.43,0,0,0-5.65-.51,2,2,0,0,1-1.83-.28,2.07,2.07,0,0,0-2.53-.12,1.84,1.84,0,0,1-2.44-.56,2.39,2.39,0,0,0-2.67-.9,5,5,0,0,1-3.67-.7c-2.45-1.23-4.87-2.49-7.32-3.71a9.55,9.55,0,0,0-5-1.2,7.44,7.44,0,0,1-4.9-1.39,11.88,11.88,0,0,0-7.79-2c-2.18.12-4.38.1-6.57.12-1.45,0-2.17-.67-2.08-2.19.06-1,0-2,0-3,0-3.28,1.67-5,4.93-5.13a27.48,27.48,0,0,1,3,0,11.77,11.77,0,0,0,9-3.25,3.78,3.78,0,0,0,1.6-3,17.37,17.37,0,0,1,1.54-7.93c1.21-2.45.39-5.39.16-8.11-.06-.73-.21-1.45-.34-2.17-.31-1.71-.15-3.24,1.53-4.25,1-.61,1.09-1.5.85-2.62a8.81,8.81,0,0,0-1.83-3.54,6.6,6.6,0,0,1,2.35-1.57,6.71,6.71,0,0,0,4-5.75,81.66,81.66,0,0,0,0-10.95c0-1-.63-1.15-1.44-1.14-2.37,0-4.75-.06-7.12,0a3,3,0,0,1-2.8-1.33,42.15,42.15,0,0,1-6-12.52c-.28-.93-.1-1.39,1-1.66a26.31,26.31,0,0,1,8.09-1,13.14,13.14,0,0,0,4.79-1,18.09,18.09,0,0,1,6.2-.85c3.79.19,7.35-1.21,11-1.74,3.24-.46,6.44-1.26,9.65-1.9a5.11,5.11,0,0,1,1.09-.15c7.93.15,15.46-2.31,23.17-3.59a9,9,0,0,1,2.16-.26c4.28.41,8.32-.81,12.37-1.84a20.44,20.44,0,0,1,5.66-.76,34.66,34.66,0,0,0,7.58-1c1.19-.23,1.68.12,1.8,1.3A15.58,15.58,0,0,1,307.14,268Zm-86.23,28.08c1.15-2.11,3.23-3.19,5.22-4.17,1.7-.84,2.66-.06,2.92,1.88.16,1.16.2,2.34.29,3.42a17,17,0,0,1-.75,5.46,6.58,6.58,0,0,1-1.33,2.35c-1.93,1.94-4.37,2.81-5.68-1.09q-.66-1.94-1.17-3.9A5.33,5.33,0,0,1,220.91,296.07ZM316.64,272a1,1,0,0,1-1.38-.51,3,3,0,0,1,0-2.22c1.09.21,1.25,1,1.58,1.59S317.11,271.77,316.64,272Zm2.12-8.23c-.72-1.16-1.35-2.38-2.05-3.54-.38-.64-.5-1.22.22-1.63a1.26,1.26,0,0,1,1.7.36,2.2,2.2,0,0,1,.33.44c.81,2,1.61,4,2.57,6.34A3.4,3.4,0,0,1,318.76,263.75Zm11.33-1.52a10,10,0,0,1-1.6,3.37c-2.25-2.71-3.52-5.81-4.84-9.34,1,0,1.51,0,2,0,1.3.05,2.56-.32,3.55,1.22S330.8,260.43,330.09,262.23Zm7.19-6.14c-.32.41-.47,1-1.32,1.23-.2-2.63-.2-2.63,1.89-2.61C338.13,255.36,337.59,255.69,337.28,256.09Zm360.1-61.93c-.46,0-.91.13-1.36.13-2,0-2.35-.28-2.49-2.28-.07-1,0-2,0-3a58.89,58.89,0,0,1,1.16-9.72c.09-.58-.08-1.37.89-1.4s1.07.6,1.2,1.24c.61,2.92,1.25,5.85,1.78,8.79.26,1.43.25,2.9.46,4.33S698.54,194.06,697.38,194.16ZM738,154.5c2.47-.41,4.82-1.7,7.43-1.11.09,0,.13.26.22.47a9,9,0,0,1-5.93,2.25,2.67,2.67,0,0,1-1.81-.43c-.18-.16-.4-.42-.38-.61A.77.77,0,0,1,738,154.5Zm4.25,35.73a6.15,6.15,0,0,1-.72-2c-.45-4-2.06-7.72-3.29-11.53-1.47-4.6-2.84-9.22-3.07-14.09-.05-1.07-.31-2.2,1.4-2.37.48,0,.9-.84,1.3-1.33a3.67,3.67,0,0,1,2.92-1.17c.55-.06.93.3,1,1.1.12,4.82,1.75,9.27,3.43,13.7a13.21,13.21,0,0,1,.66,3.2,81.27,81.27,0,0,0,2.77,11.93c.33,1.13.25,2-1.15,2.15a8.22,8.22,0,0,0-2.71,1.24C743.28,191.83,743.06,191.77,742.27,190.23Zm8.53,9.24c-.61.16-1.25.25-1.46.29-.51.05-.64.1-.69.05-1.3-1.12-2.64-2.11-4.51-1.73a27.24,27.24,0,0,1-1.11-3.89c-.1-.65.87-.79,1.42-1.08a22.65,22.65,0,0,0,2.84-1.62,1.34,1.34,0,0,1,2.11.28c1.65,2,1.68,4.56,2.07,7C751.54,199.17,751.16,199.39,750.8,199.47Z" transform="translate(-91.19 -150.09)"/><path d="M787,233.13c0-.06-.16-.13-.15-.19s.11-.12.17-.18l.15.18Z" transform="translate(-91.19 -150.09)"/><path d="M798,274.76s-.13-.09-.16-.16.06-.11.09-.16.14,0,.18,0S798.18,274.68,798,274.76Z" transform="translate(-91.19 -150.09)"/><path class="cls-1" d="M155,311.22a1.47,1.47,0,0,1-1.8,0c-1.16-.65-1.59-2.52-1.16-3a27.77,27.77,0,0,1,3-1.6c.44-.27,4.19-4.53,13.51-4.82s27.07-1,27.07-1,2.09-.87,2.39-.91,6.3-2.37,8.29-2.46,9.14-.48,9.75-.3a6.14,6.14,0,0,0,2.71-.74c.39-.21,4.28-3.39,4.71-3.62.93-.51,3.36-1.64,3.58-1.68s-5.35,0-5.35,0l-1.17-2s8.93-.58,9.79.27.83,6.57.83,7.69.13,6.64-1.1,8.14a24.86,24.86,0,0,1-2.39,2.68,4.57,4.57,0,0,1-3.68,1s-3.46-3-3.85-6.4c0,0,0-.69-.25-.69s-2.18-.87-2.84.51-.4,4.18-.9,5.35-.95,4.36-4.37,6.1-6.8,1.49-8.65.44a6.57,6.57,0,0,1-3.42-4.47c-.61-2.22-.58-2.87-1.34-3.56s.11-.91-1.38-.95-18.36,2-18.36,2l-6.15.29s-4-.76-5.52-.47-4.73-.25-7.42,1.16A22.92,22.92,0,0,0,155,311.22Z" transform="translate(-91.19 -150.09)"/><path d="M203.71,311.66a10.28,10.28,0,0,1-2.29-6c-.22-3.28.63-4.69,3.78-5.7a16.75,16.75,0,0,1,4.36-.82c4.87-.55,5.86.35,5.89,4.89a14,14,0,0,1-2.48,7.4c-.35.58-.92.66-1.54,1a11.54,11.54,0,0,1-4,1.08C205.27,313.66,204.9,313.09,203.71,311.66Z" transform="translate(-91.19 -150.09)"/><path d="M221.92,296.79c1.14-2.11,3.22-3.19,5.21-4.16,1.71-.84,2.66-.07,2.93,1.87.15,1.17.2,2.35.29,3.43a17,17,0,0,1-.76,5.45,6.44,6.44,0,0,1-1.33,2.35c-1.92,1.95-4.36,2.82-5.68-1.09-.43-1.28-.82-2.58-1.16-3.9A5.34,5.34,0,0,1,221.92,296.79Z" transform="translate(-91.19 -150.09)"/><path class="cls-2" d="M481.81,436.81h13.95c6.07,0,12.15,1.66,16.8,6.37s7.75,12.45,7.75,24.08-3.1,19.23-7.75,23.93a23.11,23.11,0,0,1-16.8,6.65v40.68H481.81Zm13.95,45.81c4.27,0,7-.83,8.53-3.19,1.55-2.21,1.94-5.95,1.94-11.62s-.39-9.69-1.94-12.18S500,452,495.76,452Z" transform="translate(-91.19 -150.09)"/><path class="cls-2" d="M552.22,538.52,545,495.62h-3.74v42.9h-14V436.81h14c16.66,0,23.77,10.1,23.77,29.34,0,10.1-2.46,19.23-7.75,23.11l8.91,49.26Zm-11-56.73a9.25,9.25,0,0,0,6.59-2.22c2.06-1.94,3.74-5.67,3.74-12.87s-1.68-11.07-3.74-13-4.65-2.08-6.59-2.08Z" transform="translate(-91.19 -150.09)"/><path class="cls-2" d="M610.22,517.63a29.15,29.15,0,0,1-2.32,11.06,18.92,18.92,0,0,1-5.55,7.48c-2.59,2.21-6.08,3.46-10.73,3.46s-8.27-1.25-10.85-3.46a18.7,18.7,0,0,1-5.43-7.48A29.34,29.34,0,0,1,573,517.63V457.71a29.25,29.25,0,0,1,2.32-10.93,19,19,0,0,1,5.43-7.61,16.93,16.93,0,0,1,10.85-3.46,16.59,16.59,0,0,1,10.73,3.46,19.24,19.24,0,0,1,5.55,7.61,29.05,29.05,0,0,1,2.32,10.93Zm-14-59.92c0-2.77-.51-4.71-1.81-6.37a3.85,3.85,0,0,0-2.84-1.1c-2.45,0-3.62,1.93-4.13,3.73a11.24,11.24,0,0,0-.52,3.74v59.92c0,2.9.65,4.84,1.94,6.36a3.58,3.58,0,0,0,2.71,1.11c2.46,0,3.62-1.66,4.14-3.74a10.46,10.46,0,0,0,.51-3.73Z" transform="translate(-91.19 -150.09)"/><path class="cls-2" d="M619.66,538.52V436.81h11c12.92,0,19.89,2.77,23.64,10.52s4.13,20.48,4.13,40.41-.51,32.51-4.13,40.26-10.72,10.52-23.64,10.52Zm14-14.94c4.78,0,7.49-.56,8.91-5.54a47.18,47.18,0,0,0,1.3-10.79c.12-4.85.12-11.35.12-19.65s0-14.81-.12-19.65a49.52,49.52,0,0,0-1.3-10.8c-1.42-4.84-4.13-5.39-8.91-5.39Z" transform="translate(-91.19 -150.09)"/><path class="cls-2" d="M704.79,436.81v80.82a29.34,29.34,0,0,1-2.32,11.06,19,19,0,0,1-5.56,7.48c-2.58,2.21-6.07,3.46-10.72,3.46s-8.27-1.25-10.85-3.46a18.6,18.6,0,0,1-5.43-7.48,29.34,29.34,0,0,1-2.32-11.06V436.81h13.95v80.82c0,2.9.64,4.84,1.94,6.36a3.57,3.57,0,0,0,2.71,1.11c2.45,0,3.62-1.66,4.13-3.74a10.22,10.22,0,0,0,.52-3.73V436.81Z" transform="translate(-91.19 -150.09)"/><path class="cls-2" d="M751.3,503.65v14A29.15,29.15,0,0,1,749,528.69a18.92,18.92,0,0,1-5.55,7.48c-2.58,2.21-6.07,3.46-10.72,3.46s-8.27-1.25-10.85-3.46a18.51,18.51,0,0,1-5.43-7.48,29.15,29.15,0,0,1-2.32-11.06V457.71a29.05,29.05,0,0,1,2.32-10.93,18.83,18.83,0,0,1,5.43-7.61,16.93,16.93,0,0,1,10.85-3.46,16.54,16.54,0,0,1,10.72,3.46,19.24,19.24,0,0,1,5.55,7.61,29.05,29.05,0,0,1,2.33,10.93v14h-13v-14a9.1,9.1,0,0,0-2.06-6.37,4.43,4.43,0,0,0-3.23-1.1c-2.46,0-3.62,1.93-4.27,3.73a16.36,16.36,0,0,0-.64,3.74v59.92a10,10,0,0,0,2.19,6.36A3.59,3.59,0,0,0,733,525.1c3,0,4.13-1.66,4.78-3.74a10.46,10.46,0,0,0,.51-3.73v-14Z" transform="translate(-91.19 -150.09)"/><path class="cls-2" d="M754.79,452.17V436.81H795.1v15.36H781.92v86.35H768V452.17Z" transform="translate(-91.19 -150.09)"/><path class="cls-2" d="M800.53,436.81h14V538.52h-14Z" transform="translate(-91.19 -150.09)"/><path class="cls-2" d="M861.11,517.63a29.34,29.34,0,0,1-2.32,11.06,19,19,0,0,1-5.56,7.48c-2.58,2.21-6.07,3.46-10.72,3.46s-8.27-1.25-10.85-3.46a18.51,18.51,0,0,1-5.43-7.48,29.34,29.34,0,0,1-2.32-11.06V457.71a29.25,29.25,0,0,1,2.32-10.93,18.83,18.83,0,0,1,5.43-7.61,16.93,16.93,0,0,1,10.85-3.46,16.54,16.54,0,0,1,10.72,3.46,19.27,19.27,0,0,1,5.56,7.61,29.25,29.25,0,0,1,2.32,10.93Zm-14-59.92a9.7,9.7,0,0,0-1.81-6.37,3.86,3.86,0,0,0-2.84-1.1c-2.45,0-3.62,1.93-4.13,3.73a11.24,11.24,0,0,0-.52,3.74v59.92c0,2.9.64,4.84,1.94,6.36a3.57,3.57,0,0,0,2.71,1.11c2.45,0,3.62-1.66,4.13-3.74a10.22,10.22,0,0,0,.52-3.73Z" transform="translate(-91.19 -150.09)"/><path class="cls-2" d="M885.27,485.52l-1.16-4.7h-.78v57.7H870.55V436.81H883l13.56,53,1.16,4.71h.78V436.81h12.79V538.52h-12.4Z" transform="translate(-91.19 -150.09)"/><path class="cls-2" d="M605.72,584.31a35.84,35.84,0,0,0-1-10c-.91-2.76-2.33-4.7-4.52-4.7-3.62.14-4.78,4.15-4.78,10.1,0,3.46,1.42,7.06,3.48,10.93s4.78,7.89,7.5,12.18a157.64,157.64,0,0,1,8.91,15.5c2.46,5.12,4.14,10.38,4.14,15.91,0,6.78-1,13.15-4,17.85s-7.75,7.75-15.37,7.75c-8.92,0-14-3.6-16.8-9.13s-3.49-12.87-3.49-20.48l13.7-1.38c0,4.28.13,8.57,1.16,11.76s2.46,5.53,5.43,5.53c4.13,0,5.68-4.7,5.68-11.21,0-3.32-1.55-7.19-3.61-11.21-1.17-1.93-2.33-4-3.62-6.08-2.72-4.16-5.69-8.86-8.79-14a60.31,60.31,0,0,1-6.85-15.78,29,29,0,0,1-1.16-8.16c0-5.54,1.16-11.48,4.14-16a16.64,16.64,0,0,1,14.08-7.75c8.39-.14,13.3,3.6,16,9,2.71,5.54,3.49,12.32,3.49,18Z" transform="translate(-91.19 -150.09)"/><path class="cls-2" d="M663.21,637.86a29.2,29.2,0,0,1-2.33,11.07,18.89,18.89,0,0,1-5.55,7.47c-2.58,2.22-6.07,3.46-10.72,3.46s-8.27-1.24-10.86-3.46a18.55,18.55,0,0,1-5.42-7.47A29.39,29.39,0,0,1,626,637.86V577.94A29.25,29.25,0,0,1,628.33,567a18.9,18.9,0,0,1,5.42-7.61,17,17,0,0,1,10.86-3.46,16.54,16.54,0,0,1,10.72,3.46,19.24,19.24,0,0,1,5.55,7.61,29.05,29.05,0,0,1,2.33,10.93Zm-14-59.92a9.67,9.67,0,0,0-1.81-6.36,3.85,3.85,0,0,0-2.84-1.11c-2.46,0-3.62,1.94-4.14,3.73a11.29,11.29,0,0,0-.51,3.74v59.92c0,2.9.64,4.84,1.93,6.36a3.57,3.57,0,0,0,2.72,1.11c2.45,0,3.61-1.66,4.13-3.73a10.28,10.28,0,0,0,.52-3.74Z" transform="translate(-91.19 -150.09)"/><path class="cls-2" d="M709.72,557.05v80.81a29.39,29.39,0,0,1-2.33,11.07,18.89,18.89,0,0,1-5.55,7.47c-2.59,2.22-6.07,3.46-10.72,3.46s-8.27-1.24-10.85-3.46a18.48,18.48,0,0,1-5.43-7.47,29.39,29.39,0,0,1-2.33-11.07V557.05h14v80.81c0,2.9.65,4.84,1.94,6.36a3.56,3.56,0,0,0,2.72,1.11c2.45,0,3.61-1.66,4.13-3.73a10.28,10.28,0,0,0,.52-3.74V557.05Z" transform="translate(-91.19 -150.09)"/><path class="cls-2" d="M734.65,605.75l-1.16-4.7h-.78v57.7H719.93V557.05h12.4l13.56,53,1.17,4.7h.77v-57.7h12.79v101.7h-12.4Z" transform="translate(-91.19 -150.09)"/><path class="cls-2" d="M771,658.75V557.05h11c12.92,0,19.89,2.76,23.64,10.51S809.71,588,809.71,608s-.52,32.52-4.13,40.27-10.72,10.51-23.64,10.51Zm13.95-14.94c4.78,0,7.49-.55,8.91-5.54a47.3,47.3,0,0,0,1.29-10.79c.13-4.84.13-11.35.13-19.65s0-14.81-.13-19.65a49.61,49.61,0,0,0-1.29-10.79c-1.42-4.84-4.13-5.4-8.91-5.4Z" transform="translate(-91.19 -150.09)"/><path class="cls-2" d="M560,779.08V677.37h11c12.92,0,19.89,2.77,23.64,10.52s4.13,20.47,4.13,40.4-.52,32.52-4.13,40.27S583.93,779.08,571,779.08Zm14-15c4.78,0,7.49-.55,8.91-5.53a47.32,47.32,0,0,0,1.29-10.8c.13-4.84.13-11.34.13-19.65s0-14.8-.13-19.65a49.61,49.61,0,0,0-1.29-10.79c-1.42-4.84-4.13-5.4-8.91-5.4Z" transform="translate(-91.19 -150.09)"/><path class="cls-2" d="M644.39,758.18a29.39,29.39,0,0,1-2.33,11.07,18.82,18.82,0,0,1-5.55,7.47c-2.59,2.22-6.08,3.46-10.73,3.46s-8.27-1.24-10.85-3.46a18.48,18.48,0,0,1-5.42-7.47,29.39,29.39,0,0,1-2.33-11.07V698.26a29.25,29.25,0,0,1,2.33-10.93,19,19,0,0,1,5.42-7.61,17,17,0,0,1,10.85-3.46,16.65,16.65,0,0,1,10.73,3.46,19.31,19.31,0,0,1,5.55,7.61,29.25,29.25,0,0,1,2.33,10.93Zm-14-59.92c0-2.76-.51-4.7-1.8-6.36a3.89,3.89,0,0,0-2.85-1.11c-2.45,0-3.61,1.94-4.13,3.74a11.18,11.18,0,0,0-.52,3.73v59.92c0,2.91.65,4.85,1.94,6.37a3.58,3.58,0,0,0,2.71,1.1c2.46,0,3.62-1.66,4.14-3.73a10.3,10.3,0,0,0,.51-3.74Z" transform="translate(-91.19 -150.09)"/><path class="cls-2" d="M648.91,692.73V677.37h40.3v15.36H676v86.35H662.09V692.73Z" transform="translate(-91.19 -150.09)"/><path class="cls-2" d="M729.26,726.08l-1.16-4.71h-.78v57.71H714.54V677.37h12.4l13.56,53,1.17,4.7h.77v-57.7h12.79V779.08h-12.4Z" transform="translate(-91.19 -150.09)"/><path class="cls-2" d="M765.57,677.37h31.91v15.36h-18v26.71h12.92v16.32H779.52v28h18v15.36H765.57Z" transform="translate(-91.19 -150.09)"/><path class="cls-2" d="M805.49,692.73V677.37h40.3v15.36H832.62v86.35h-14V692.73Z" transform="translate(-91.19 -150.09)"/><path class="cls-3" d="M889.51,562.06" transform="translate(-91.19 -150.09)"/><path class="cls-4" d="M831.79,560.73v76.41c0,4.63,0,9.27,0,13.91,0,.93.15,1.71,1.25,1.81.86.07,1.33-.61,1.33-1.86q0-33.75,0-67.51c0-7.26,0-14.52,0-21.78a1.79,1.79,0,0,0-1-1.87C832.43,559.57,832.12,559.74,831.79,560.73Z" transform="translate(-91.19 -150.09)"/><path class="cls-4" d="M839.11,562.73c-1.51-.64-2.26-.17-2.26,1.45q0,30.14,0,60.27v22.9c0,.38,0,.76,0,1.14,0,.7.14,1.3.88,1.55a1.34,1.34,0,0,0,1.65-.66,55.64,55.64,0,0,0,.39-5.64c-.15-23-.06-46,0-69,0-3.49-.16-7,0-10.47C839.75,563.74,839.82,563.06,839.11,562.73Z" transform="translate(-91.19 -150.09)"/><path class="cls-4" d="M829.16,606.3v-39c0-1.58-.39-2.26-1.29-2.26s-1.29.66-1.29,2.26q0,39.06,0,78.12v.12c0,1.36.43,2,1.29,2s1.29-.63,1.29-2V606.3Z" transform="translate(-91.19 -150.09)"/><path class="cls-4" d="M821.37,606.28q0,14.47,0,29c0,.49-.06,1,.36,1.38a1.22,1.22,0,0,0,1.36.32,1.34,1.34,0,0,0,.85-1.35q0-3.14,0-6.27V577.1c0-.89-.38-1.54-1.3-1.55s-1.28.66-1.28,1.54c0,4.06,0,8.13,0,12.2Z" transform="translate(-91.19 -150.09)"/><path class="cls-4" d="M857.79,596.16q0,15.83,0,31.65c0,.42-.33,18.89.25,19.23l.18.17c.59.89,1.27.61,2,.16a2.62,2.62,0,0,0,.62-2c0-.93,0-1.86,0-2.8a7.43,7.43,0,0,0,0-1.25v-65.7a8.84,8.84,0,0,0,0-1.26c0-1.52.05-3,0-4.58,0-1,0-1.94,0-2.91a2.33,2.33,0,0,0-.67-1.84c-1.43-.65-2.46-.11-2.69,1.45C857.27,567.6,857.79,590.4,857.79,596.16Z" transform="translate(-91.19 -150.09)"/><path class="cls-4" d="M948.71,604.91c-1.07-.54-1.79-.46-2.22.24a2.37,2.37,0,0,0,.49,2.71,1.31,1.31,0,0,0,1.89-.69,4.53,4.53,0,0,0,.12-.9Z" transform="translate(-91.19 -150.09)"/><path class="cls-4" d="M937,616.24c.89,0,1.64-.19,1.66-1.25.12-5.9.15-11.8,0-17.71-.07-.73-.63-.84-1.2-.94-1,0-1.45.67-1.65,1.56a6.89,6.89,0,0,0-.07,1.36v14.33a4.14,4.14,0,0,0,.29,2C936.21,616,936.46,616.31,937,616.24Z" transform="translate(-91.19 -150.09)"/><path class="cls-4" d="M943.31,602l-.43-.23c-1.37,0-1.75.42-1.76,1.76,0,1.9,0,3.79,0,5.69,0,.9.27,1.63,1.28,1.66s1.35-.67,1.35-1.59c0-2,0-3.94,0-5.91A2.43,2.43,0,0,0,943.31,602Z" transform="translate(-91.19 -150.09)"/><path class="cls-4" d="M844.71,578.84c-1-1-1.5-1-2.49,0a.8.8,0,0,0-.25.72c0,4.13.17,8.26,0,12.39,0,.75.1,1.51.09,2.27-.09,5.35-.06,10.7-.06,16,0,5.57,0,11.15,0,16.72,0,2.05-.08,4.09.1,6.13l.08.43c.26,1,.95,1,1.75.74.41-.08.58-.4.74-.73a4.78,4.78,0,0,0,.06-1.36q0-24.45,0-48.91a12.26,12.26,0,0,1,.16-2.49A2.49,2.49,0,0,0,844.71,578.84Z" transform="translate(-91.19 -150.09)"/><path class="cls-4" d="M855.24,606.14q0-8.83,0-17.66c0-.31,0-.61,0-.91,0-.92-.35-1.62-1.36-1.59s-1.25.71-1.25,1.58c0,4.45,0,8.89,0,13.33q0,11.91,0,23.82c0,.86.09,1.64,1.09,1.86s1.55-.51,1.55-1.74c0-2.89,0-5.77,0-8.66Z" transform="translate(-91.19 -150.09)"/><path class="cls-4" d="M847.4,606.21c0,3.57,0,7.14,0,10.7,0,.93.18,1.7,1.26,1.82.84.1,1.36-.61,1.36-1.83q0-10.59,0-21.17c0-.75-.06-1.47-.9-1.79s-1.73.31-1.74,1.57c0,3.57,0,7.13,0,10.7Z" transform="translate(-91.19 -150.09)"/><path class="cls-4" d="M865.64,624.54c0-3,0-6.06,0-9.09q0-11.31,0-22.62,0-7.58,0-15.16a4.74,4.74,0,0,0-.06-1.13,1.21,1.21,0,0,0-1.35-1,1.18,1.18,0,0,0-1.13,1.09,8.85,8.85,0,0,0,0,1q0,28.66,0,57.32c0,.27,0,.54,0,.8a1.27,1.27,0,0,0,2.53,0c.06-.68,0-1.36,0-2.05C865.61,630.7,865.62,627.62,865.64,624.54Z" transform="translate(-91.19 -150.09)"/><path class="cls-4" d="M930.75,606.31v5.92a.69.69,0,0,0,.51,1.07c1.51.42,2.09,0,2.09-1.52,0-3.68,0-7.36,0-11,0-.88-.27-1.51-1.22-1.61s-1.33.56-1.35,1.6C930.77,602.59,930.76,604.45,930.75,606.31Z" transform="translate(-91.19 -150.09)"/><path class="cls-4" d="M883.87,582q0,9.86,0,19.71,0,14.19,0,28.37c0,.16,0,.31,0,.46,0,.84.41,1.41,1.29,1.41s1.28-.57,1.28-1.41v-8.32q0-19.66,0-39.32c0-.46,0-.91-.05-1.37-.17-.89-.84-1-1.55-.88S883.63,581.15,883.87,582Z" transform="translate(-91.19 -150.09)"/><path class="cls-4" d="M881.24,606.18v-15.4a8.69,8.69,0,0,0,0-1,1.17,1.17,0,0,0-1.19-1.15,1.23,1.23,0,0,0-1.34,1.14,6.92,6.92,0,0,0,0,1q0,15.57,0,31.14a5.29,5.29,0,0,0,.06,1.13,1.26,1.26,0,0,0,2.46-.09,4,4,0,0,0,0-.69V606.18Z" transform="translate(-91.19 -150.09)"/><path class="cls-4" d="M888.8,595q0,10.82,0,21.61c0,1.59.37,2.24,1.28,2.26s1.35-.66,1.36-2.31c0-.34,0-.68,0-1a1.89,1.89,0,0,0,.4-1.5q0-8.84,0-17.67a3,3,0,0,0-.49-2,1.52,1.52,0,0,0-1.57-.7A1.19,1.19,0,0,0,888.8,595Z" transform="translate(-91.19 -150.09)"/><path class="cls-4" d="M870.78,615.38l0-17.43c0-.84-.32-1.45-1.21-1.47s-1.35.54-1.35,1.46q0,8.31,0,16.63c0,1.14.6,1.56,1.65,1.53C870.44,616.15,870.67,615.84,870.78,615.38Z" transform="translate(-91.19 -150.09)"/><path class="cls-4" d="M873.45,606.39c0,1.82,0,3.65,0,5.47,0,.94.33,1.63,1.33,1.61s1.24-.71,1.24-1.59c0-3.76,0-7.52,0-11.28,0-.92-.41-1.5-1.33-1.48s-1.24.61-1.24,1.46c0,1.93,0,3.87,0,5.81Z" transform="translate(-91.19 -150.09)"/><path class="cls-4" d="M912.6,620.2c0-9.2-.05-28.59-.45-29-1.28-.48-1.78-.29-2.36.87a15.5,15.5,0,0,0-.11,2q0,12.21,0,24.4c0,.46,0,.91,0,1.37.13,1.59,1.19,2.11,2.62,1.28C912.6,620.92,912.81,620.62,912.6,620.2Z" transform="translate(-91.19 -150.09)"/><path class="cls-4" d="M915.12,606.26v5.47c0,1.17.47,1.81,1.31,1.74,1-.09,1.25-.78,1.25-1.69,0-3.65,0-7.29,0-10.94,0-1.16-.47-1.8-1.31-1.73-1,.09-1.28.77-1.27,1.69,0,1.82,0,3.64,0,5.46Z" transform="translate(-91.19 -150.09)"/><path class="cls-4" d="M922.13,601.75h-1a1.82,1.82,0,0,0-.78,1.65c0,1.93,0,3.86,0,5.79,0,.92.29,1.64,1.28,1.64s1.3-.71,1.29-1.63c0-1.89,0-3.79,0-5.68A1.93,1.93,0,0,0,922.13,601.75Z" transform="translate(-91.19 -150.09)"/><path class="cls-4" d="M928.06,605.16c-.94-1.09-1.61-1.09-2.48,0,0,.61-.08,1.22,0,1.82a1.18,1.18,0,0,0,1.34,1.23,1.17,1.17,0,0,0,1.2-1.25C928.1,606.38,928.07,605.77,928.06,605.16Z" transform="translate(-91.19 -150.09)"/><path class="cls-4" d="M894.63,613.2c1.48.61,2.22.12,2.23-1.5,0-3.32,0-6.64.06-10,0-.41,0-.83-.07-1.24-.05-.85-.49-1.4-1.35-1.37a1.27,1.27,0,0,0-1.28,1.44q0,3.28,0,6.59c0,1.51,0,3,0,4.55A2.44,2.44,0,0,0,894.63,613.2Z" transform="translate(-91.19 -150.09)"/><path class="cls-4" d="M904.76,597.19q0,6.88-.08,13.76c0,1.25,0,2.5,0,3.75,0,.84.35,1.43,1.25,1.42a1.24,1.24,0,0,0,1.32-1.39q0-8.41,0-16.84c0-1-.62-1.4-1.55-1.41C905.16,596.4,904.8,596.57,904.76,597.19Z" transform="translate(-91.19 -150.09)"/><path class="cls-4" d="M900.32,601.74a1.8,1.8,0,0,0-.88,1.61c0,2,0,3.94,0,5.91,0,.93.35,1.6,1.36,1.58s1.27-.68,1.27-1.54c0-1.94,0-3.87,0-5.8,0-1.35-.38-1.72-1.76-1.76Z" transform="translate(-91.19 -150.09)"/><path class="cls-4" d="M559.58,658.91v-76.4c0-4.64,0-9.28,0-13.92,0-.93-.15-1.71-1.25-1.8-.86-.08-1.32.6-1.32,1.85v67.51c0,7.26,0,14.52,0,21.78a1.83,1.83,0,0,0,1,1.88C558.94,660.07,559.25,659.9,559.58,658.91Z" transform="translate(-91.19 -150.09)"/><path class="cls-4" d="M552.26,656.91c1.51.64,2.26.18,2.26-1.44q0-30.15,0-60.28v-22.9c0-.38,0-.76,0-1.14,0-.7-.14-1.3-.88-1.55a1.34,1.34,0,0,0-1.65.66,55.84,55.84,0,0,0-.39,5.64c.15,23,.06,46,0,69,0,3.49.15,7,0,10.48C551.62,655.91,551.55,656.58,552.26,656.91Z" transform="translate(-91.19 -150.09)"/><path class="cls-4" d="M562.21,613.34v39c0,1.58.39,2.26,1.29,2.26s1.29-.66,1.29-2.25q0-39.08,0-78.13v-.11c0-1.37-.43-2-1.28-2s-1.3.63-1.3,2v39.23Z" transform="translate(-91.19 -150.09)"/><path class="cls-4" d="M570,613.37v-29a1.67,1.67,0,0,0-.37-1.39,1.22,1.22,0,0,0-1.35-.32,1.33,1.33,0,0,0-.86,1.35q0,3.13,0,6.27v52.23c0,.88.38,1.53,1.3,1.54s1.28-.65,1.28-1.53c0-4.07,0-8.14,0-12.2Z" transform="translate(-91.19 -150.09)"/><path class="cls-4" d="M533.58,623.48q0-15.83,0-31.65c0-.41.33-18.89-.25-19.22l-.18-.18c-.59-.89-1.27-.6-2-.15a2.59,2.59,0,0,0-.62,2c0,.93,0,1.87,0,2.8a7.43,7.43,0,0,0,0,1.25V644a8.75,8.75,0,0,0,0,1.25c0,1.53-.05,3,0,4.58,0,1,0,1.94,0,2.92a2.35,2.35,0,0,0,.67,1.84c1.43.64,2.46.11,2.69-1.46C534.1,652,533.58,629.25,533.58,623.48Z" transform="translate(-91.19 -150.09)"/><path class="cls-4" d="M442.66,614.73c1.07.54,1.79.46,2.22-.24a2.35,2.35,0,0,0-.49-2.7,1.31,1.31,0,0,0-1.89.68,4.53,4.53,0,0,0-.12.9Z" transform="translate(-91.19 -150.09)"/><path class="cls-4" d="M454.39,603.41c-.89,0-1.64.18-1.66,1.24-.12,5.9-.15,11.81,0,17.71.07.73.63.84,1.2.95,1,0,1.45-.68,1.65-1.57a6.89,6.89,0,0,0,.07-1.36c0-4.78,0-9.55,0-14.32a4.2,4.2,0,0,0-.29-2C455.16,603.67,454.91,603.33,454.39,603.41Z" transform="translate(-91.19 -150.09)"/><path class="cls-4" d="M448.06,617.67l.43.24c1.37-.06,1.75-.43,1.76-1.77,0-1.89,0-3.79,0-5.68,0-.91-.27-1.63-1.28-1.66s-1.35.66-1.35,1.58c0,2,0,3.94,0,5.91A2.41,2.41,0,0,0,448.06,617.67Z" transform="translate(-91.19 -150.09)"/><path class="cls-4" d="M546.66,640.8c1,1,1.5,1,2.49,0a.8.8,0,0,0,.25-.72c0-4.13-.16-8.26,0-12.39,0-.75-.1-1.51-.08-2.27.08-5.35,0-10.7,0-16,0-5.58,0-11.16,0-16.73,0-2,.08-4.08-.1-6.12l-.08-.44c-.26-1-.95-1-1.75-.74-.41.08-.58.41-.74.73a4.78,4.78,0,0,0-.06,1.36q0,24.47,0,48.91a12.26,12.26,0,0,1-.16,2.49A2.49,2.49,0,0,0,546.66,640.8Z" transform="translate(-91.19 -150.09)"/><path class="cls-4" d="M536.14,613.5v17.66c0,.31,0,.61,0,.92,0,.91.35,1.61,1.37,1.58s1.24-.7,1.24-1.58c0-4.44,0-8.89,0-13.33V594.93c0-.85-.09-1.63-1.09-1.85s-1.55.5-1.55,1.73c0,2.89,0,5.78,0,8.66C536.13,606.82,536.14,610.16,536.14,613.5Z" transform="translate(-91.19 -150.09)"/><path class="cls-4" d="M544,613.43c0-3.57,0-7.13,0-10.7,0-.93-.18-1.7-1.26-1.82-.84-.09-1.36.61-1.36,1.83q0,10.59,0,21.17c0,.76.06,1.47.9,1.79s1.73-.31,1.74-1.57c0-3.56,0-7.13,0-10.7Z" transform="translate(-91.19 -150.09)"/><path class="cls-4" d="M525.73,595.1c0,3,0,6.06,0,9.09q0,11.31,0,22.62,0,7.58,0,15.16a4.71,4.71,0,0,0,.06,1.13,1.22,1.22,0,0,0,1.35,1,1.19,1.19,0,0,0,1.13-1.1,8.69,8.69,0,0,0,0-1q0-28.66,0-57.33c0-.27,0-.53,0-.8a1.27,1.27,0,0,0-2.53,0c-.06.68,0,1.37,0,2C525.76,589,525.75,592,525.73,595.1Z" transform="translate(-91.19 -150.09)"/><path class="cls-4" d="M460.62,613.34v-5.93a.7.7,0,0,0-.52-1.07c-1.51-.41-2.09,0-2.09,1.52,0,3.68,0,7.37,0,11,0,.88.27,1.51,1.22,1.6s1.33-.56,1.35-1.6C460.6,617.06,460.61,615.2,460.62,613.34Z" transform="translate(-91.19 -150.09)"/><path class="cls-4" d="M507.5,637.63q0-9.86,0-19.72,0-14.17,0-28.37c0-.15,0-.31,0-.46,0-.84-.41-1.4-1.29-1.41s-1.27.58-1.28,1.42v8.32q0,19.65,0,39.31c0,.46,0,.91.05,1.37.17.89.84,1,1.55.88S507.74,638.5,507.5,637.63Z" transform="translate(-91.19 -150.09)"/><path class="cls-4" d="M510.13,613.46v15.4a8.63,8.63,0,0,0,0,1,1.16,1.16,0,0,0,1.19,1.15,1.22,1.22,0,0,0,1.34-1.13,7.09,7.09,0,0,0,0-1q0-15.57,0-31.14a5.32,5.32,0,0,0-.06-1.13,1.26,1.26,0,0,0-2.46.1,3.83,3.83,0,0,0,0,.68v16.08Z" transform="translate(-91.19 -150.09)"/><path class="cls-4" d="M502.57,624.63q0-10.8,0-21.61c0-1.59-.37-2.24-1.28-2.26s-1.35.66-1.36,2.31c0,.34,0,.68-.05,1a1.9,1.9,0,0,0-.4,1.5q0,8.83,0,17.67a3,3,0,0,0,.49,2,1.52,1.52,0,0,0,1.57.7A1.18,1.18,0,0,0,502.57,624.63Z" transform="translate(-91.19 -150.09)"/><path class="cls-4" d="M520.59,604.27l0,17.43c0,.83.32,1.45,1.21,1.46s1.35-.54,1.35-1.46q0-8.31,0-16.63c0-1.14-.6-1.55-1.65-1.53C520.93,603.49,520.7,603.81,520.59,604.27Z" transform="translate(-91.19 -150.09)"/><path class="cls-4" d="M517.92,613.25c0-1.82,0-3.64,0-5.47,0-.94-.33-1.62-1.33-1.6s-1.24.7-1.24,1.58c0,3.76,0,7.53,0,11.29,0,.92.41,1.49,1.33,1.48s1.24-.62,1.24-1.46c0-1.94,0-3.88,0-5.82Z" transform="translate(-91.19 -150.09)"/><path class="cls-4" d="M478.77,599.44c0,9.2.05,28.59.45,29,1.28.47,1.78.29,2.37-.87a17.59,17.59,0,0,0,.1-2q0-12.19,0-24.4c0-.45,0-.91,0-1.36-.13-1.6-1.19-2.11-2.62-1.29C478.77,598.73,478.56,599,478.77,599.44Z" transform="translate(-91.19 -150.09)"/><path class="cls-4" d="M476.25,613.38v-5.46c0-1.18-.47-1.82-1.31-1.75-1,.09-1.25.79-1.25,1.7,0,3.64,0,7.28,0,10.93,0,1.16.47,1.8,1.32,1.73,1-.09,1.27-.77,1.26-1.68,0-1.82,0-3.65,0-5.47Z" transform="translate(-91.19 -150.09)"/><path class="cls-4" d="M469.24,617.89h1.05a1.79,1.79,0,0,0,.78-1.65c0-1.93,0-3.86,0-5.79,0-.92-.28-1.64-1.28-1.64s-1.3.71-1.29,1.63c0,1.9,0,3.79,0,5.68A2,2,0,0,0,469.24,617.89Z" transform="translate(-91.19 -150.09)"/><path class="cls-4" d="M463.31,614.48c.94,1.09,1.61,1.09,2.48,0a15.85,15.85,0,0,0,0-1.82,1.19,1.19,0,0,0-1.34-1.23,1.17,1.17,0,0,0-1.2,1.25C463.27,613.27,463.3,613.87,463.31,614.48Z" transform="translate(-91.19 -150.09)"/><path class="cls-4" d="M496.74,606.44c-1.48-.61-2.22-.12-2.23,1.5,0,3.32,0,6.64-.06,10,0,.41.05.83.07,1.24.05.85.49,1.4,1.35,1.37a1.26,1.26,0,0,0,1.28-1.43q0-3.3,0-6.6c0-1.51,0-3,0-4.54A2.45,2.45,0,0,0,496.74,606.44Z" transform="translate(-91.19 -150.09)"/><path class="cls-4" d="M486.62,622.45c0-4.58.06-9.17.08-13.75,0-1.25,0-2.51,0-3.76,0-.83-.34-1.43-1.25-1.42a1.24,1.24,0,0,0-1.32,1.39q0,8.42,0,16.84c0,1,.62,1.4,1.55,1.42C486.21,623.24,486.58,623.07,486.62,622.45Z" transform="translate(-91.19 -150.09)"/><path class="cls-4" d="M491.05,617.9a1.8,1.8,0,0,0,.88-1.6c0-2,0-3.95,0-5.92,0-.92-.35-1.6-1.36-1.58s-1.27.68-1.27,1.55c0,1.93,0,3.86,0,5.8,0,1.35.38,1.71,1.76,1.75Z" transform="translate(-91.19 -150.09)"/></svg>